<svg xmlns="http://www.w3.org/2000/svg" viewBox="0 0 495.47 27.31"><defs><style>.cls-1{fill:#fff;}</style></defs><title>GoMAOnly-White</title><g id="Layer_2" data-name="Layer 2"><g id="Layer_1-2" data-name="Layer 1"><path class="cls-1" d="M10.51,18.55a7.12,7.12,0,0,0,1.69-.18,6.87,6.87,0,0,0,1.39-.46V14.73h-2a.92.92,0,0,1-.68-.24.81.81,0,0,1-.25-.62V11.19h7.07V20a10.44,10.44,0,0,1-1.59,1,10.94,10.94,0,0,1-1.76.7,13.47,13.47,0,0,1-2,.4,20.31,20.31,0,0,1-2.28.13A9.79,9.79,0,0,1,2.9,19.23a10.38,10.38,0,0,1-2.13-3.4A11.6,11.6,0,0,1,0,11.57,12.19,12.19,0,0,1,.74,7.26,9.67,9.67,0,0,1,2.85,3.87,9.55,9.55,0,0,1,6.16,1.65,11.62,11.62,0,0,1,10.51.86a12.29,12.29,0,0,1,2.33.22,10.51,10.51,0,0,1,2,.59,9.31,9.31,0,0,1,1.69.89,10.25,10.25,0,0,1,1.37,1.12L16.57,5.83a1.48,1.48,0,0,1-.46.47,1,1,0,0,1-.58.17,1.58,1.58,0,0,1-.85-.28c-.36-.23-.7-.43-1-.6a6.08,6.08,0,0,0-1-.41A5.85,5.85,0,0,0,11.6,5a9.55,9.55,0,0,0-1.26-.07A5.48,5.48,0,0,0,8,5.36,5,5,0,0,0,6.24,6.72,6.25,6.25,0,0,0,5.12,8.83a8.72,8.72,0,0,0-.4,2.74,9.26,9.26,0,0,0,.44,3,6.34,6.34,0,0,0,1.21,2.19A5.1,5.1,0,0,0,8.2,18.08,5.64,5.64,0,0,0,10.51,18.55Z"/><path class="cls-1" d="M28.52,6.91a7.73,7.73,0,0,1,2.94.53A6.35,6.35,0,0,1,33.73,9a7.06,7.06,0,0,1,1.47,2.41,9.16,9.16,0,0,1,.53,3.19,9.33,9.33,0,0,1-.53,3.22,7.06,7.06,0,0,1-1.47,2.43,6.39,6.39,0,0,1-2.27,1.54,8.3,8.3,0,0,1-5.89,0,6.47,6.47,0,0,1-2.29-1.54,6.81,6.81,0,0,1-1.49-2.43,9.33,9.33,0,0,1-.53-3.22,9.16,9.16,0,0,1,.53-3.19A6.81,6.81,0,0,1,23.28,9a6.42,6.42,0,0,1,2.29-1.52A7.78,7.78,0,0,1,28.52,6.91Zm0,12.07a2.35,2.35,0,0,0,2.15-1.09,6.24,6.24,0,0,0,.69-3.3,6.24,6.24,0,0,0-.69-3.3,2.38,2.38,0,0,0-2.15-1.07,2.42,2.42,0,0,0-2.19,1.07,6.14,6.14,0,0,0-.7,3.3,6.14,6.14,0,0,0,.7,3.3A2.39,2.39,0,0,0,28.52,19Z"/><path class="cls-1" d="M50.38,13.61c.17.39.33.8.48,1.21.16-.42.32-.83.49-1.23s.35-.79.54-1.16L57,1.83a1.68,1.68,0,0,1,.28-.43,1,1,0,0,1,.32-.22,1,1,0,0,1,.4-.07h4v21H58V10c0-.58,0-1.22.08-1.9L52.79,18.88a1.85,1.85,0,0,1-.67.76,1.75,1.75,0,0,1-.94.26h-.63a1.78,1.78,0,0,1-.95-.26,1.76,1.76,0,0,1-.66-.76L43.64,8.09c0,.33.07.67.09,1s0,.63,0,.91V22.06H39.69V1.11h4a1,1,0,0,1,.4.07,1,1,0,0,1,.33.22,2,2,0,0,1,.27.43l5.12,10.64C50,12.84,50.21,13.22,50.38,13.61Z"/><path class="cls-1" d="M85.46,22.06H81.88a1.58,1.58,0,0,1-1-.3,1.5,1.5,0,0,1-.54-.75l-1.17-3.66H71.62L70.45,21a1.53,1.53,0,0,1-.54.72,1.44,1.44,0,0,1-1,.33H65.34l7.7-21h4.72ZM72.68,14h5.44L76.29,8.3,75.87,7c-.16-.49-.32-1-.47-1.6C75.25,6,75.1,6.54,75,7s-.3.93-.44,1.29Z"/><path class="cls-1" d="M97.11,0H99V27H97.11Z"/><path class="cls-1" d="M118.52,20A13,13,0,0,0,120,20a7.91,7.91,0,0,0,1.25-.24,7.11,7.11,0,0,0,1.1-.38c.35-.15.69-.32,1-.51V14.27h-3a.6.6,0,0,1-.42-.15.56.56,0,0,1-.15-.39V12.14h6v7.92a11.32,11.32,0,0,1-1.53,1,10.35,10.35,0,0,1-1.71.69,11.26,11.26,0,0,1-1.94.42,17.68,17.68,0,0,1-2.26.14,9.73,9.73,0,0,1-3.9-.77,9.1,9.1,0,0,1-3.06-2.16,10.1,10.1,0,0,1-2-3.33,12.46,12.46,0,0,1-.71-4.27,12.57,12.57,0,0,1,.7-4.31,9.64,9.64,0,0,1,2-3.33A9.05,9.05,0,0,1,114.52,2a10.72,10.72,0,0,1,4.14-.76,12.26,12.26,0,0,1,2.16.18,9.47,9.47,0,0,1,1.85.52,8,8,0,0,1,1.57.82,8.88,8.88,0,0,1,1.35,1.08l-.75,1.27a.68.68,0,0,1-.6.39.88.88,0,0,1-.47-.16c-.23-.14-.49-.3-.77-.49a5.75,5.75,0,0,0-1-.55,8,8,0,0,0-1.43-.46,9.35,9.35,0,0,0-2-.18,7.73,7.73,0,0,0-3,.56,6.32,6.32,0,0,0-2.28,1.63,7.11,7.11,0,0,0-1.44,2.56,10.48,10.48,0,0,0-.51,3.38,10.69,10.69,0,0,0,.53,3.48,7.34,7.34,0,0,0,1.48,2.6,6.42,6.42,0,0,0,2.26,1.63A7.34,7.34,0,0,0,118.52,20Z"/><path class="cls-1" d="M132.16.86v21.2h-2.43V.86Z"/><path class="cls-1" d="M146.6,22.06h-1.08a1.15,1.15,0,0,1-.57-.12.61.61,0,0,1-.29-.49l-.27-1.35a14.17,14.17,0,0,1-1.07.93,6.25,6.25,0,0,1-1.09.69,5,5,0,0,1-1.22.42,6.37,6.37,0,0,1-1.44.15,4.64,4.64,0,0,1-1.51-.24,3.4,3.4,0,0,1-1.22-.72,3.3,3.3,0,0,1-.83-1.2,4.54,4.54,0,0,1-.3-1.73,3.34,3.34,0,0,1,.45-1.66,4.05,4.05,0,0,1,1.45-1.43,9.09,9.09,0,0,1,2.63-1,16.64,16.64,0,0,1,4-.4V12.76a4.12,4.12,0,0,0-.69-2.59,2.45,2.45,0,0,0-2-.88,4,4,0,0,0-1.49.24,6.15,6.15,0,0,0-1.06.53c-.29.2-.55.38-.76.54a1,1,0,0,1-.63.23.69.69,0,0,1-.43-.13,1,1,0,0,1-.3-.34l-.43-.82a7.64,7.64,0,0,1,2.47-1.74,7.33,7.33,0,0,1,2.93-.58,5,5,0,0,1,2.06.41,4.15,4.15,0,0,1,1.52,1.12,5,5,0,0,1,.92,1.74,7.58,7.58,0,0,1,.32,2.24Zm-6.31-1.57a4.83,4.83,0,0,0,1.18-.14,4.33,4.33,0,0,0,1-.39,5.1,5.1,0,0,0,.9-.61,7.18,7.18,0,0,0,.84-.82v-3a15.42,15.42,0,0,0-2.85.22,7.2,7.2,0,0,0-1.91.59,2.57,2.57,0,0,0-1.07.85,1.86,1.86,0,0,0-.34,1.1,2.52,2.52,0,0,0,.18,1,1.94,1.94,0,0,0,.48.69,2,2,0,0,0,.71.39A3.07,3.07,0,0,0,140.29,20.49Z"/><path class="cls-1" d="M158.2,9.88a.53.53,0,0,1-.51.32.88.88,0,0,1-.46-.16l-.64-.35a5.47,5.47,0,0,0-.89-.36,4.12,4.12,0,0,0-1.23-.16,3.4,3.4,0,0,0-1.1.16,2.59,2.59,0,0,0-.84.45,2.13,2.13,0,0,0-.54.67,1.94,1.94,0,0,0-.18.83,1.42,1.42,0,0,0,.31.94,2.53,2.53,0,0,0,.81.64,6.41,6.41,0,0,0,1.15.49c.42.13.86.28,1.31.44s.89.33,1.32.53a4.65,4.65,0,0,1,1.15.72,3.39,3.39,0,0,1,.81,1.05A3.47,3.47,0,0,1,159,17.6a4.93,4.93,0,0,1-.35,1.86,3.87,3.87,0,0,1-1,1.48,4.75,4.75,0,0,1-1.63,1,6.46,6.46,0,0,1-2.24.36,6.65,6.65,0,0,1-2.62-.5,6.47,6.47,0,0,1-2-1.27l.57-1a.92.92,0,0,1,.26-.29.75.75,0,0,1,.39-.1.9.9,0,0,1,.52.2,7.42,7.42,0,0,0,.66.45,5,5,0,0,0,1,.44,3.89,3.89,0,0,0,1.38.21,3.58,3.58,0,0,0,1.24-.2,2.58,2.58,0,0,0,.89-.52,2.13,2.13,0,0,0,.53-.77,2.51,2.51,0,0,0,.17-.92,1.63,1.63,0,0,0-.31-1,2.69,2.69,0,0,0-.81-.67,6.22,6.22,0,0,0-1.16-.49l-1.32-.44a12.53,12.53,0,0,1-1.32-.53,4.33,4.33,0,0,1-1.16-.74,3.38,3.38,0,0,1-.81-1.1,3.75,3.75,0,0,1-.31-1.59,4,4,0,0,1,.33-1.6,3.92,3.92,0,0,1,1-1.36,4.78,4.78,0,0,1,1.54-.92,5.87,5.87,0,0,1,2.09-.35,6.19,6.19,0,0,1,2.45.46A5.61,5.61,0,0,1,158.74,9Z"/><path class="cls-1" d="M166.78,7.24a6.58,6.58,0,0,1,1.69.21,4.88,4.88,0,0,1,1.42.61h3.76V9c0,.31-.2.51-.58.6l-1.57.23a4.92,4.92,0,0,1,.08,4,4.36,4.36,0,0,1-1.08,1.49,4.68,4.68,0,0,1-1.64,1,6.26,6.26,0,0,1-2.08.33,6.8,6.8,0,0,1-1.83-.24,2.38,2.38,0,0,0-.66.64,1.23,1.23,0,0,0-.23.67,1,1,0,0,0,.4.81,2.74,2.74,0,0,0,1,.39A8.32,8.32,0,0,0,167,19h1.7a9.6,9.6,0,0,1,1.7.16,5,5,0,0,1,1.49.53,2.87,2.87,0,0,1,1.05,1,3.16,3.16,0,0,1,.39,1.66,4.18,4.18,0,0,1-.44,1.84,4.91,4.91,0,0,1-1.28,1.58,6.25,6.25,0,0,1-2,1.1,8.22,8.22,0,0,1-2.72.42,10,10,0,0,1-2.65-.32,5.9,5.9,0,0,1-1.89-.85,3.55,3.55,0,0,1-1.13-1.23,3,3,0,0,1-.37-1.46,2.71,2.71,0,0,1,.65-1.84,4.44,4.44,0,0,1,1.78-1.2,2.4,2.4,0,0,1-.94-.77,2.16,2.16,0,0,1-.35-1.28,2.28,2.28,0,0,1,.11-.66,3,3,0,0,1,.34-.67,3.62,3.62,0,0,1,1.31-1.16,4.46,4.46,0,0,1-1.6-1.6,4.56,4.56,0,0,1-.58-2.34,4.7,4.7,0,0,1,.39-1.94A4.32,4.32,0,0,1,163,8.51a4.91,4.91,0,0,1,1.66-.94A6.48,6.48,0,0,1,166.78,7.24Zm4.31,15.56a1.36,1.36,0,0,0-.28-.9,1.85,1.85,0,0,0-.78-.52,5.68,5.68,0,0,0-1.13-.27,9.77,9.77,0,0,0-1.35-.09H166.1a5.05,5.05,0,0,1-1.41-.19,3.87,3.87,0,0,0-1.26,1,2,2,0,0,0-.48,1.34,1.79,1.79,0,0,0,.24.91,2,2,0,0,0,.73.74,3.9,3.9,0,0,0,1.23.49,7.54,7.54,0,0,0,1.75.18,7.19,7.19,0,0,0,1.76-.19,4.44,4.44,0,0,0,1.32-.54,2.65,2.65,0,0,0,.83-.84A2.06,2.06,0,0,0,171.09,22.8Zm-4.31-7.86a3.69,3.69,0,0,0,1.3-.22,2.62,2.62,0,0,0,.95-.6,2.48,2.48,0,0,0,.58-.93A3.76,3.76,0,0,0,169.8,12,3,3,0,0,0,169,9.87a3,3,0,0,0-2.25-.79,3,3,0,0,0-2.23.79,3,3,0,0,0-.77,2.13,3.27,3.27,0,0,0,.2,1.19,2.48,2.48,0,0,0,.58.93,2.58,2.58,0,0,0,.94.6A3.61,3.61,0,0,0,166.78,14.94Z"/><path class="cls-1" d="M181.67,7.25a6.9,6.9,0,0,1,2.74.53,5.89,5.89,0,0,1,2.07,1.51,6.81,6.81,0,0,1,1.31,2.37,9.75,9.75,0,0,1,.46,3.1,9.73,9.73,0,0,1-.46,3.11,6.68,6.68,0,0,1-1.31,2.36,5.75,5.75,0,0,1-2.07,1.5,7.35,7.35,0,0,1-5.48,0,5.87,5.87,0,0,1-2.08-1.5,6.86,6.86,0,0,1-1.32-2.36,9.72,9.72,0,0,1-.47-3.11,9.74,9.74,0,0,1,.47-3.1,7,7,0,0,1,1.32-2.37,6,6,0,0,1,2.08-1.51A6.9,6.9,0,0,1,181.67,7.25Zm0,13a3.49,3.49,0,0,0,3.06-1.45,7,7,0,0,0,1-4,7.06,7.06,0,0,0-1-4.06,3.49,3.49,0,0,0-3.06-1.45,4,4,0,0,0-1.8.37,3.42,3.42,0,0,0-1.28,1.08,5,5,0,0,0-.76,1.73,9.73,9.73,0,0,0-.25,2.33,9.56,9.56,0,0,0,.25,2.31,4.86,4.86,0,0,0,.76,1.72,3.3,3.3,0,0,0,1.28,1.07A4,4,0,0,0,181.67,20.26Z"/><path class="cls-1" d="M189.45,7.48h1.91a.72.72,0,0,1,.49.16.84.84,0,0,1,.26.37l2.65,9.39c.07.34.14.67.2,1s.12.64.17,1c.07-.33.15-.65.24-1s.19-.66.29-1L198.58,8a.64.64,0,0,1,.24-.36.61.61,0,0,1,.43-.15h1.05a.68.68,0,0,1,.45.15A.64.64,0,0,1,201,8l2.86,9.44c.1.33.19.66.26,1s.15.65.23,1q.06-.47.18-1c.07-.35.15-.67.23-1L207.45,8a.71.71,0,0,1,.26-.38.72.72,0,0,1,.45-.15H210l-4.48,14.58h-1.92c-.24,0-.4-.17-.49-.49L200,11.68c-.07-.22-.13-.44-.18-.67s-.09-.44-.14-.66c0,.22-.09.44-.13.67s-.11.46-.18.68l-3.1,9.87c-.1.32-.28.49-.56.49h-1.83Z"/><path class="cls-1" d="M213.86.36a5.42,5.42,0,0,1,.58,1.38,5.92,5.92,0,0,1,.17,1.38,5.45,5.45,0,0,1-.6,2.5,7.87,7.87,0,0,1-1.69,2.18l-.75-.49a.35.35,0,0,1-.14-.16.35.35,0,0,1,0-.17.5.5,0,0,1,.14-.35A5.19,5.19,0,0,0,212,6a6.42,6.42,0,0,0,.37-.68,3.82,3.82,0,0,0,.26-.74,3.61,3.61,0,0,0,.1-.82,4,4,0,0,0-.13-.95,4.55,4.55,0,0,0-.45-1A.61.61,0,0,1,212,1.5a.53.53,0,0,1,.37-.51Z"/><path class="cls-1" d="M225.86,9.88a.53.53,0,0,1-.51.32.88.88,0,0,1-.46-.16l-.63-.35a5.61,5.61,0,0,0-.9-.36,4,4,0,0,0-1.23-.16,3.44,3.44,0,0,0-1.1.16,2.59,2.59,0,0,0-.84.45,2.09,2.09,0,0,0-.53.67,1.81,1.81,0,0,0-.19.83,1.42,1.42,0,0,0,.31.94,2.53,2.53,0,0,0,.81.64,6.41,6.41,0,0,0,1.15.49c.43.13.86.28,1.31.44s.89.33,1.32.53a4.65,4.65,0,0,1,1.15.72,3.39,3.39,0,0,1,.81,1.05,3.47,3.47,0,0,1,.31,1.51,5.13,5.13,0,0,1-.34,1.86,4.11,4.11,0,0,1-1,1.48,4.89,4.89,0,0,1-1.64,1,6.42,6.42,0,0,1-2.24.36,6.69,6.69,0,0,1-2.62-.5,6.47,6.47,0,0,1-2-1.27l.57-1a.92.92,0,0,1,.26-.29.76.76,0,0,1,.4-.1.89.89,0,0,1,.51.2c.19.14.41.29.67.45a4.86,4.86,0,0,0,.94.44,3.93,3.93,0,0,0,1.38.21,3.54,3.54,0,0,0,1.24-.2,2.49,2.49,0,0,0,.89-.52,2.13,2.13,0,0,0,.53-.77,2.51,2.51,0,0,0,.17-.92,1.57,1.57,0,0,0-.31-1,2.47,2.47,0,0,0-.81-.67,6.41,6.41,0,0,0-1.15-.49l-1.33-.44a12.53,12.53,0,0,1-1.32-.53,4.5,4.5,0,0,1-1.16-.74,3.38,3.38,0,0,1-.81-1.1,3.76,3.76,0,0,1-.3-1.59,4,4,0,0,1,.32-1.6,3.92,3.92,0,0,1,1-1.36A4.78,4.78,0,0,1,220,7.6a5.91,5.91,0,0,1,2.09-.35,6.15,6.15,0,0,1,2.45.46A5.61,5.61,0,0,1,226.4,9Z"/><path class="cls-1" d="M244.16,20a12.79,12.79,0,0,0,1.45-.08,7.91,7.91,0,0,0,1.25-.24,7.62,7.62,0,0,0,1.11-.38c.34-.15.69-.32,1-.51V14.27h-3a.56.56,0,0,1-.41-.15.53.53,0,0,1-.16-.39V12.14h6v7.92a11.42,11.42,0,0,1-1.54,1,10.25,10.25,0,0,1-1.7.69,11.59,11.59,0,0,1-1.95.42,17.41,17.41,0,0,1-2.25.14,9.73,9.73,0,0,1-3.9-.77A8.91,8.91,0,0,1,237,19.36,9.93,9.93,0,0,1,235,16a12.23,12.23,0,0,1-.72-4.27A12.57,12.57,0,0,1,235,7.45a9.47,9.47,0,0,1,2-3.33A9.05,9.05,0,0,1,240.15,2a10.8,10.8,0,0,1,4.15-.76,12.06,12.06,0,0,1,2.15.18,9.28,9.28,0,0,1,1.85.52,8.13,8.13,0,0,1,1.58.82,10,10,0,0,1,1.35,1.08l-.75,1.27a.7.7,0,0,1-.6.39.88.88,0,0,1-.48-.16l-.76-.49a6.54,6.54,0,0,0-1-.55,8.43,8.43,0,0,0-1.44-.46,9.28,9.28,0,0,0-2-.18,7.68,7.68,0,0,0-3,.56A6.15,6.15,0,0,0,239,5.82a7.28,7.28,0,0,0-1.45,2.56,10.48,10.48,0,0,0-.51,3.38,10.69,10.69,0,0,0,.53,3.48,7.34,7.34,0,0,0,1.48,2.6,6.46,6.46,0,0,0,2.27,1.63A7.3,7.3,0,0,0,244.16,20Z"/><path class="cls-1" d="M265.25,22.06h-1.08a1.22,1.22,0,0,1-.58-.12.62.62,0,0,1-.28-.49L263,20.1A12.38,12.38,0,0,1,262,21a6.65,6.65,0,0,1-1.09.69,5,5,0,0,1-1.22.42,6.5,6.5,0,0,1-1.44.15,4.64,4.64,0,0,1-1.51-.24,3.35,3.35,0,0,1-2-1.92,4.53,4.53,0,0,1-.31-1.73,3.34,3.34,0,0,1,.45-1.66,4.09,4.09,0,0,1,1.46-1.43,9.13,9.13,0,0,1,2.62-1,16.78,16.78,0,0,1,4-.4V12.76a4.12,4.12,0,0,0-.69-2.59,2.45,2.45,0,0,0-2-.88,4.14,4.14,0,0,0-1.5.24,6.42,6.42,0,0,0-1.05.53c-.29.2-.55.38-.76.54a1.07,1.07,0,0,1-.64.23.73.73,0,0,1-.43-.13,1.05,1.05,0,0,1-.29-.34L255,9.54a7.86,7.86,0,0,1,2.47-1.74,7.38,7.38,0,0,1,2.94-.58,5,5,0,0,1,2.06.41A4.12,4.12,0,0,1,264,8.75a4.84,4.84,0,0,1,.93,1.74,7.58,7.58,0,0,1,.32,2.24Zm-6.31-1.57a4.69,4.69,0,0,0,1.17-.14,4.4,4.4,0,0,0,1-.39,5.1,5.1,0,0,0,.9-.61,9.17,9.17,0,0,0,.84-.82v-3a15.61,15.61,0,0,0-2.86.22,7.33,7.33,0,0,0-1.91.59,2.71,2.71,0,0,0-1.07.85,1.92,1.92,0,0,0-.33,1.1,2.52,2.52,0,0,0,.18,1,1.8,1.8,0,0,0,.47.69,2.13,2.13,0,0,0,.71.39A3.19,3.19,0,0,0,258.94,20.49Z"/><path class="cls-1" d="M271.63.86v21.2H269.2V.86Z"/><path class="cls-1" d="M278.62.86v21.2h-2.43V.86Z"/><path class="cls-1" d="M288.38,7.25a6,6,0,0,1,2.29.44A5.12,5.12,0,0,1,292.48,9a5.86,5.86,0,0,1,1.2,2,8.43,8.43,0,0,1,.43,2.77,1.83,1.83,0,0,1-.12.81.53.53,0,0,1-.47.2h-9.2a8.42,8.42,0,0,0,.36,2.4,5,5,0,0,0,.9,1.7,3.67,3.67,0,0,0,1.36,1,4.59,4.59,0,0,0,1.78.33,4.88,4.88,0,0,0,1.57-.22,7.83,7.83,0,0,0,1.14-.48,7.31,7.31,0,0,0,.8-.48,1.06,1.06,0,0,1,.55-.23.55.55,0,0,1,.47.25l.68.93a4.48,4.48,0,0,1-1.08,1,6.1,6.1,0,0,1-1.34.7,8.32,8.32,0,0,1-1.48.41,8.77,8.77,0,0,1-1.52.14,6.75,6.75,0,0,1-2.64-.51,5.84,5.84,0,0,1-2.09-1.5,7.12,7.12,0,0,1-1.37-2.44,10.35,10.35,0,0,1-.49-3.34,9,9,0,0,1,.44-2.84,7,7,0,0,1,1.28-2.3,5.77,5.77,0,0,1,2-1.52A6.41,6.41,0,0,1,288.38,7.25Zm.05,1.89a3.6,3.6,0,0,0-2.77,1.07,5.14,5.14,0,0,0-1.25,3h7.51a5.22,5.22,0,0,0-.23-1.63,3.57,3.57,0,0,0-.68-1.28,3.14,3.14,0,0,0-1.1-.84A3.46,3.46,0,0,0,288.43,9.14Z"/><path class="cls-1" d="M297.21,22.06V7.48h1.39a.71.71,0,0,1,.54.16,1.05,1.05,0,0,1,.21.55l.16,2.27a6.52,6.52,0,0,1,1.76-2.38,3.73,3.73,0,0,1,2.44-.86,3.69,3.69,0,0,1,1,.14,3.51,3.51,0,0,1,.86.38l-.31,1.91a.42.42,0,0,1-.42.36,2,2,0,0,1-.59-.13,3.57,3.57,0,0,0-1.11-.14,3,3,0,0,0-2.12.78,5.94,5.94,0,0,0-1.43,2.26v9.28Z"/><path class="cls-1" d="M312.26,26.36a1.33,1.33,0,0,1-.31.46.78.78,0,0,1-.57.17h-1.8l2.53-5.78L306.4,7.48h2.11a.71.71,0,0,1,.49.17,1.1,1.1,0,0,1,.26.36l3.7,9.18c.08.22.15.43.21.64s.11.42.15.64c.07-.22.13-.43.19-.64s.14-.43.22-.65L317.32,8a.88.88,0,0,1,.28-.38.7.7,0,0,1,.43-.15H320Z"/><path class="cls-1" d="M333,7.25a6.9,6.9,0,0,1,2.74.53,5.81,5.81,0,0,1,2.07,1.51,6.81,6.81,0,0,1,1.31,2.37,9.75,9.75,0,0,1,.46,3.1,9.73,9.73,0,0,1-.46,3.11,6.68,6.68,0,0,1-1.31,2.36,5.66,5.66,0,0,1-2.07,1.5,6.9,6.9,0,0,1-2.74.53,6.82,6.82,0,0,1-2.73-.53,5.7,5.7,0,0,1-2.08-1.5,6.71,6.71,0,0,1-1.33-2.36,9.73,9.73,0,0,1-.46-3.11,9.75,9.75,0,0,1,.46-3.1,6.85,6.85,0,0,1,1.33-2.37,5.84,5.84,0,0,1,2.08-1.51A6.82,6.82,0,0,1,333,7.25Zm0,13a3.46,3.46,0,0,0,3.06-1.45,7,7,0,0,0,1-4,7.06,7.06,0,0,0-1-4.06A3.46,3.46,0,0,0,333,9.27a4,4,0,0,0-1.8.37A3.39,3.39,0,0,0,330,10.72a4.82,4.82,0,0,0-.77,1.73,9.73,9.73,0,0,0-.25,2.33,9.56,9.56,0,0,0,.25,2.31,4.69,4.69,0,0,0,.77,1.72,3.27,3.27,0,0,0,1.27,1.07A4,4,0,0,0,333,20.26Z"/><path class="cls-1" d="M343.17,22.06V9.67l-1.53-.19a1.21,1.21,0,0,1-.47-.22.54.54,0,0,1-.18-.44V7.77h2.18V6.36a6.82,6.82,0,0,1,.33-2.22,4.5,4.5,0,0,1,1-1.64,4,4,0,0,1,1.49-1,5.36,5.36,0,0,1,2-.34,5,5,0,0,1,1.72.28l-.06,1.29c0,.19-.08.3-.23.34a2.39,2.39,0,0,1-.61.06h-.43a3.78,3.78,0,0,0-1.14.17,2.21,2.21,0,0,0-.88.56,2.63,2.63,0,0,0-.56,1,5.45,5.45,0,0,0-.2,1.57V7.77h4V9.63h-3.92V22.06Z"/><path class="cls-1" d="M367.43,15.33c.09.25.18.51.28.77.09-.27.18-.52.28-.77s.22-.49.34-.74L375,1.91a.81.81,0,0,1,.37-.4,1.6,1.6,0,0,1,.55-.07h1.95V22.06H375.5V6.91c0-.2,0-.42,0-.65s0-.47,0-.71l-6.7,12.9a1,1,0,0,1-1,.64h-.39a1,1,0,0,1-.95-.64L359.71,5.51c0,.25.05.49.06.73s0,.47,0,.67V22.06h-2.32V1.44h1.95a1.6,1.6,0,0,1,.55.07.85.85,0,0,1,.37.4l6.75,12.69A6.07,6.07,0,0,1,367.43,15.33Z"/><path class="cls-1" d="M387.79,7.25a6.87,6.87,0,0,1,2.74.53,5.84,5.84,0,0,1,2.08,1.51,7.15,7.15,0,0,1,1.31,2.37,10,10,0,0,1,.45,3.1,10,10,0,0,1-.45,3.11,7,7,0,0,1-1.31,2.36,5.7,5.7,0,0,1-2.08,1.5,7.32,7.32,0,0,1-5.47,0,5.7,5.7,0,0,1-2.08-1.5,6.71,6.71,0,0,1-1.33-2.36,9.73,9.73,0,0,1-.46-3.11,9.75,9.75,0,0,1,.46-3.1A6.85,6.85,0,0,1,383,9.29a5.84,5.84,0,0,1,2.08-1.51A6.85,6.85,0,0,1,387.79,7.25Zm0,13a3.46,3.46,0,0,0,3.06-1.45,6.9,6.9,0,0,0,1-4,7,7,0,0,0-1-4.06,3.46,3.46,0,0,0-3.06-1.45,4,4,0,0,0-1.8.37,3.39,3.39,0,0,0-1.27,1.08,5,5,0,0,0-.77,1.73,10.27,10.27,0,0,0-.25,2.33,10.09,10.09,0,0,0,.25,2.31,4.86,4.86,0,0,0,.77,1.72A3.27,3.27,0,0,0,386,19.88,4,4,0,0,0,387.79,20.26Z"/><path class="cls-1" d="M407.11,22.06a.63.63,0,0,1-.66-.53l-.22-1.77a7.7,7.7,0,0,1-2,1.82,5,5,0,0,1-2.62.68,4.75,4.75,0,0,1-2.15-.48,4.48,4.48,0,0,1-1.65-1.42A6.87,6.87,0,0,1,396.73,18a12.9,12.9,0,0,1-.36-3.21,10.72,10.72,0,0,1,.4-3A7.44,7.44,0,0,1,398,9.41a5.42,5.42,0,0,1,1.87-1.6,5.31,5.31,0,0,1,2.51-.59,4.67,4.67,0,0,1,2.17.46A5.11,5.11,0,0,1,406.12,9V.86h2.43v21.2Zm-4.71-1.87a3.72,3.72,0,0,0,2.08-.58A6.13,6.13,0,0,0,406.12,18v-7a3.89,3.89,0,0,0-1.46-1.34,4.13,4.13,0,0,0-1.77-.38,3.46,3.46,0,0,0-3,1.46,7.07,7.07,0,0,0-1,4.14,10.81,10.81,0,0,0,.23,2.44,4.74,4.74,0,0,0,.68,1.67,2.73,2.73,0,0,0,1.11.95A3.38,3.38,0,0,0,402.4,20.19Z"/><path class="cls-1" d="M418.1,7.25a6,6,0,0,1,2.3.44A5.12,5.12,0,0,1,422.21,9a5.86,5.86,0,0,1,1.2,2,8.43,8.43,0,0,1,.43,2.77,1.67,1.67,0,0,1-.13.81.5.5,0,0,1-.46.2h-9.2a8.42,8.42,0,0,0,.36,2.4,4.82,4.82,0,0,0,.9,1.7,3.59,3.59,0,0,0,1.36,1,4.59,4.59,0,0,0,1.78.33A4.88,4.88,0,0,0,420,20a7.83,7.83,0,0,0,1.14-.48,7.31,7.31,0,0,0,.8-.48,1,1,0,0,1,.55-.23.55.55,0,0,1,.47.25l.68.93a4.48,4.48,0,0,1-1.08,1,6.34,6.34,0,0,1-1.34.7,8.32,8.32,0,0,1-1.48.41,8.77,8.77,0,0,1-1.52.14,6.75,6.75,0,0,1-2.64-.51,5.75,5.75,0,0,1-2.09-1.5,7.12,7.12,0,0,1-1.37-2.44,10.35,10.35,0,0,1-.49-3.34,9,9,0,0,1,.44-2.84,6.78,6.78,0,0,1,1.28-2.3,5.68,5.68,0,0,1,2-1.52A6.36,6.36,0,0,1,418.1,7.25Zm.06,1.89a3.6,3.6,0,0,0-2.77,1.07,5.21,5.21,0,0,0-1.26,3h7.52a5.22,5.22,0,0,0-.23-1.63,3.57,3.57,0,0,0-.68-1.28,3.14,3.14,0,0,0-1.1-.84A3.49,3.49,0,0,0,418.16,9.14Z"/><path class="cls-1" d="M426.93,22.06V7.48h1.4a.71.71,0,0,1,.54.16,1.05,1.05,0,0,1,.21.55l.16,2.27A6.52,6.52,0,0,1,431,8.08a3.73,3.73,0,0,1,2.44-.86,3.69,3.69,0,0,1,1,.14,3.51,3.51,0,0,1,.86.38L435,9.65a.43.43,0,0,1-.43.36,2,2,0,0,1-.58-.13,3.57,3.57,0,0,0-1.11-.14,3,3,0,0,0-2.12.78,5.94,5.94,0,0,0-1.43,2.26v9.28Z"/><path class="cls-1" d="M437.93,22.06V7.48h1.45A.64.64,0,0,1,440,8l.19,1.59a7.84,7.84,0,0,1,2-1.7,5,5,0,0,1,2.57-.65,4.67,4.67,0,0,1,2,.4,3.91,3.91,0,0,1,1.45,1.12,5.14,5.14,0,0,1,.88,1.75,8,8,0,0,1,.3,2.26v9.28H447V12.78a4.05,4.05,0,0,0-.72-2.57,2.61,2.61,0,0,0-2.19-.92,3.94,3.94,0,0,0-2,.55,7,7,0,0,0-1.73,1.48V22.06Z"/><path class="cls-1" d="M474.85,22.06H472.8a.84.84,0,0,1-.57-.19,1.06,1.06,0,0,1-.33-.47l-1.83-5H461.3l-1.83,5a1.1,1.1,0,0,1-.33.46.84.84,0,0,1-.57.2h-2.05l7.82-20.62H467ZM462,14.4h7.3L466.27,6a15.43,15.43,0,0,1-.59-1.94c-.1.4-.2.76-.3,1.09s-.18.62-.27.87Z"/><path class="cls-1" d="M476.94,22.06V7.48h1.39a.74.74,0,0,1,.55.16,1.06,1.06,0,0,1,.2.55l.16,2.27A6.63,6.63,0,0,1,481,8.08a3.74,3.74,0,0,1,2.45-.86,3.61,3.61,0,0,1,1,.14,3.51,3.51,0,0,1,.86.38L485,9.65a.41.41,0,0,1-.42.36,2,2,0,0,1-.59-.13,3.5,3.5,0,0,0-1.1-.14,3,3,0,0,0-2.13.78,5.82,5.82,0,0,0-1.42,2.26v9.28Z"/><path class="cls-1" d="M492.13,22.29a3.23,3.23,0,0,1-2.52-1,3.94,3.94,0,0,1-.88-2.77V9.63h-1.67a.52.52,0,0,1-.36-.14.55.55,0,0,1-.15-.43V8l2.26-.3.56-4.5a.59.59,0,0,1,.18-.36.55.55,0,0,1,.38-.13h1.23v5h4V9.63h-4v8.74a1.94,1.94,0,0,0,.42,1.37,1.43,1.43,0,0,0,1.09.45,1.82,1.82,0,0,0,.66-.11,2.49,2.49,0,0,0,.49-.24,2.65,2.65,0,0,0,.35-.24.42.42,0,0,1,.25-.1.41.41,0,0,1,.34.24l.71,1.22a4.48,4.48,0,0,1-1.51,1A5.08,5.08,0,0,1,492.13,22.29Z"/></g></g></svg>