<svg xmlns="http://www.w3.org/2000/svg" viewBox="0 0 712.26 71.93"><defs><style>.cls-1{fill:#f39200;}.cls-2{fill:#fff;}</style></defs><title>GoMAStrap-White</title><g id="Layer_2" data-name="Layer 2"><g id="Layer_1-2" data-name="Layer 1"><path class="cls-1" d="M32.73.73C32-.6,30.07.29,30.07.29,30.13.12,28.33,6,26.2,12.75a32.67,32.67,0,0,1,5.8.87C32.38,6.75,32.73.73,32.73.73Z"/><path class="cls-1" d="M33.47,39.12c-1.92-1.62-2.22-3.4-2.36-5.76,0-.36,0-1.38.05-2.84-2.34-.1-8.21-.43-10.41-1.31-.28.76-.53,1.37-.72,1.79-.91,2-1.77,3.4-4.28,4A66.38,66.38,0,0,1,9,36.31l-.44,2.37s12.1,5.61,14.47,6,13.73-.15,14.32-1a4.25,4.25,0,0,0,.59-2.07A42,42,0,0,1,33.47,39.12Z"/><path class="cls-2" d="M32,13.62a32.67,32.67,0,0,0-5.8-.87c-1.93,6.12-4.13,12.92-5.45,16.46,2.2.88,8.07,1.21,10.41,1.31C31.3,26.69,31.66,19.81,32,13.62Z"/><path class="cls-2" d="M10.51,63.16A7.15,7.15,0,0,0,12.2,63a8.39,8.39,0,0,0,1.39-.46V59.35h-2a.92.92,0,0,1-.68-.24.83.83,0,0,1-.25-.62V55.81h7.07v8.85a10.37,10.37,0,0,1-1.59,1,9.36,9.36,0,0,1-1.76.7,12.3,12.3,0,0,1-2,.4,18.19,18.19,0,0,1-2.28.13A9.83,9.83,0,0,1,2.9,63.85a10.49,10.49,0,0,1-2.13-3.4A11.66,11.66,0,0,1,0,56.18a12.23,12.23,0,0,1,.74-4.31,9.72,9.72,0,0,1,2.11-3.38,9.55,9.55,0,0,1,3.31-2.22,11.42,11.42,0,0,1,4.35-.79,12.31,12.31,0,0,1,2.33.21,12.18,12.18,0,0,1,2,.59,8.75,8.75,0,0,1,1.69.9,9.53,9.53,0,0,1,1.37,1.12l-1.34,2.14a1.63,1.63,0,0,1-.46.48,1.09,1.09,0,0,1-.58.17,1.6,1.6,0,0,1-.85-.29,10.24,10.24,0,0,0-1-.59,5.31,5.31,0,0,0-1-.41,5.11,5.11,0,0,0-1.06-.23,9.43,9.43,0,0,0-1.26-.08A5.34,5.34,0,0,0,8,50a5.1,5.1,0,0,0-1.77,1.35,6.35,6.35,0,0,0-1.12,2.11,8.76,8.76,0,0,0-.4,2.74,9.32,9.32,0,0,0,.44,3,6.29,6.29,0,0,0,1.21,2.18A5,5,0,0,0,8.2,62.69,5.49,5.49,0,0,0,10.51,63.16Z"/><path class="cls-2" d="M28.52,51.52a7.93,7.93,0,0,1,2.94.53,6.5,6.5,0,0,1,2.27,1.53A6.88,6.88,0,0,1,35.2,56a9.12,9.12,0,0,1,.53,3.19,9.23,9.23,0,0,1-.53,3.21,6.88,6.88,0,0,1-1.47,2.43,6.39,6.39,0,0,1-2.27,1.54,8.3,8.3,0,0,1-5.89,0,6.6,6.6,0,0,1-2.3-1.54,6.75,6.75,0,0,1-1.48-2.43,9.23,9.23,0,0,1-.53-3.21A9.12,9.12,0,0,1,21.79,56a6.51,6.51,0,0,1,3.78-3.94A8,8,0,0,1,28.52,51.52Zm0,12.07a2.36,2.36,0,0,0,2.15-1.08,6.29,6.29,0,0,0,.69-3.3,6.24,6.24,0,0,0-.69-3.3,2.36,2.36,0,0,0-2.15-1.08,2.41,2.41,0,0,0-2.19,1.08,6.14,6.14,0,0,0-.7,3.3,6.18,6.18,0,0,0,.7,3.3A2.41,2.41,0,0,0,28.52,63.59Z"/><path class="cls-2" d="M50.38,58.23c.17.39.33.79.48,1.21.16-.43.32-.84.49-1.24s.35-.78.54-1.16L57,46.44a1.61,1.61,0,0,1,.28-.42.84.84,0,0,1,.32-.22,1,1,0,0,1,.4-.08h4v21H58V54.62c0-.59,0-1.22.08-1.9L52.79,63.49a1.88,1.88,0,0,1-.67.77,1.75,1.75,0,0,1-.94.26h-.63a1.7,1.7,0,0,1-1.61-1L43.64,52.7c0,.34.07.67.09,1s0,.64,0,.92V66.67H39.69v-21h4a1,1,0,0,1,.4.08.87.87,0,0,1,.33.22,1.91,1.91,0,0,1,.27.42l5.12,10.65C50,57.45,50.21,57.83,50.38,58.23Z"/><path class="cls-2" d="M85.46,66.67H81.88a1.57,1.57,0,0,1-1-.29,1.53,1.53,0,0,1-.54-.76L79.18,62H71.62l-1.17,3.65a1.6,1.6,0,0,1-.54.73,1.43,1.43,0,0,1-1,.32H65.34l7.7-21h4.72Zm-12.78-8h5.44l-1.83-5.74-.42-1.29c-.16-.49-.32-1-.47-1.6q-.23.87-.45,1.62c-.16.5-.3.93-.44,1.3Z"/><path class="cls-2" d="M108.41,45.71v3.74h-8.16v5.31h6.8v3.76h-6.8v8.15H95.61v-21Z"/><path class="cls-2" d="M111.63,66.67V51.75h2.51a2,2,0,0,1,.53.06A.89.89,0,0,1,115,52a.74.74,0,0,1,.22.32,2.66,2.66,0,0,1,.13.49l.23,1.4a7.23,7.23,0,0,1,1.75-2,3.44,3.44,0,0,1,2.12-.74A2.38,2.38,0,0,1,121,52l-.54,3.28a.65.65,0,0,1-.22.43.74.74,0,0,1-.44.12,2.86,2.86,0,0,1-.54-.06,3.6,3.6,0,0,0-.8-.07,2.92,2.92,0,0,0-2.62,1.87v9.15Z"/><path class="cls-2" d="M129.4,47.67a2.62,2.62,0,0,1-.2,1,2.91,2.91,0,0,1-.56.82,2.82,2.82,0,0,1-.83.56,2.42,2.42,0,0,1-1,.21,2.25,2.25,0,0,1-1-.21,2.81,2.81,0,0,1-.8-.56,2.66,2.66,0,0,1-.54-.82,2.45,2.45,0,0,1-.2-1,2.52,2.52,0,0,1,.2-1,2.7,2.7,0,0,1,.54-.83,2.46,2.46,0,0,1,.8-.56,2.25,2.25,0,0,1,1-.2,2.42,2.42,0,0,1,1,.2,2.48,2.48,0,0,1,.83.56,3,3,0,0,1,.56.83A2.7,2.7,0,0,1,129.4,47.67Zm-.49,4.08V66.67h-4.23V51.75Z"/><path class="cls-2" d="M140,51.52a7.08,7.08,0,0,1,2.57.46,5.68,5.68,0,0,1,2,1.34,6.27,6.27,0,0,1,1.31,2.15,8.38,8.38,0,0,1,.47,2.89c0,.33,0,.61,0,.82a1.41,1.41,0,0,1-.15.5.58.58,0,0,1-.3.26,1.26,1.26,0,0,1-.47.07h-8.16a4.33,4.33,0,0,0,1.08,2.71,3.11,3.11,0,0,0,2.25.85,4,4,0,0,0,1.27-.19,7.1,7.1,0,0,0,.95-.42l.76-.42a1.61,1.61,0,0,1,.73-.18.86.86,0,0,1,.77.39l1.23,1.59a6.32,6.32,0,0,1-1.42,1.29,7.27,7.27,0,0,1-1.55.78,9.32,9.32,0,0,1-1.6.39,11.62,11.62,0,0,1-1.52.1,7.6,7.6,0,0,1-2.79-.51,6.36,6.36,0,0,1-2.28-1.51,7.34,7.34,0,0,1-1.54-2.51,9.77,9.77,0,0,1-.57-3.48,8.15,8.15,0,0,1,.49-2.84,6.89,6.89,0,0,1,1.39-2.34,6.78,6.78,0,0,1,2.19-1.6A7,7,0,0,1,140,51.52Zm.08,3.08a2.47,2.47,0,0,0-1.9.73,3.93,3.93,0,0,0-.9,2.09h5.28a4.4,4.4,0,0,0-.12-1,2.5,2.5,0,0,0-.43-.9,2,2,0,0,0-.77-.64A2.43,2.43,0,0,0,140.1,54.6Z"/><path class="cls-2" d="M150.45,66.67V51.75h2.62a1.09,1.09,0,0,1,.66.19,1,1,0,0,1,.37.56l.25.86c.27-.26.55-.51.84-.74a5.47,5.47,0,0,1,.94-.59,5.08,5.08,0,0,1,1.08-.37,5.46,5.46,0,0,1,1.26-.14,4.61,4.61,0,0,1,2.05.43A4.16,4.16,0,0,1,162,53.13a5.16,5.16,0,0,1,.93,1.79,7.88,7.88,0,0,1,.31,2.27v9.48H159V57.19a2.73,2.73,0,0,0-.47-1.7,1.68,1.68,0,0,0-1.41-.62,2.85,2.85,0,0,0-1.31.32,5.12,5.12,0,0,0-1.17.85V66.67Z"/><path class="cls-2" d="M177.85,66.67a1.12,1.12,0,0,1-.66-.18,1,1,0,0,1-.38-.56l-.33-1.14a7.91,7.91,0,0,1-.88.86,5.71,5.71,0,0,1-1,.67,4.87,4.87,0,0,1-1.16.43,5.67,5.67,0,0,1-1.34.15,4.24,4.24,0,0,1-2.05-.51,4.81,4.81,0,0,1-1.62-1.5,7.59,7.59,0,0,1-1.07-2.4,12.16,12.16,0,0,1-.39-3.23,10.66,10.66,0,0,1,.43-3.1,8,8,0,0,1,1.24-2.47,5.8,5.8,0,0,1,1.92-1.64,5.24,5.24,0,0,1,2.47-.59,4.63,4.63,0,0,1,1.85.34,5.38,5.38,0,0,1,1.37.89V45.13h4.23V66.67Zm-4.29-3.19a3.61,3.61,0,0,0,.84-.09,3.54,3.54,0,0,0,.69-.27,3.48,3.48,0,0,0,.6-.43,5.6,5.6,0,0,0,.55-.61V55.75a2.87,2.87,0,0,0-1.05-.78,3,3,0,0,0-1.16-.22A2.44,2.44,0,0,0,173,55a2.17,2.17,0,0,0-.85.78,4.19,4.19,0,0,0-.57,1.41,8.89,8.89,0,0,0-.21,2.08,10.1,10.1,0,0,0,.17,2,4.09,4.09,0,0,0,.46,1.3,1.77,1.77,0,0,0,.7.71A1.86,1.86,0,0,0,173.56,63.48Z"/><path class="cls-2" d="M194,55a1.22,1.22,0,0,1-.34.39,1,1,0,0,1-.48.11,1.44,1.44,0,0,1-.6-.13l-.64-.3a6.55,6.55,0,0,0-.79-.29,3,3,0,0,0-1-.14A2.08,2.08,0,0,0,189,55a1.06,1.06,0,0,0-.43.9.9.9,0,0,0,.28.69,2.43,2.43,0,0,0,.74.48,8.91,8.91,0,0,0,1.05.4c.4.13.8.26,1.21.42a9.82,9.82,0,0,1,1.2.54,4.4,4.4,0,0,1,1.05.76,3.43,3.43,0,0,1,.74,1.1,3.83,3.83,0,0,1,.28,1.55,5.5,5.5,0,0,1-.38,2,4.47,4.47,0,0,1-1.14,1.61,5.39,5.39,0,0,1-1.87,1,8,8,0,0,1-2.56.37,7.19,7.19,0,0,1-1.45-.14,10.56,10.56,0,0,1-1.39-.39,7.2,7.2,0,0,1-1.25-.58,5.65,5.65,0,0,1-1-.73l1-1.64a1.4,1.4,0,0,1,.42-.45,1.13,1.13,0,0,1,.64-.17,1.21,1.21,0,0,1,.66.18l.64.37a4.62,4.62,0,0,0,.8.37,3.15,3.15,0,0,0,1.15.18,2.83,2.83,0,0,0,.83-.11,1.38,1.38,0,0,0,.55-.3,1.31,1.31,0,0,0,.3-.41,1.36,1.36,0,0,0,.09-.48,1,1,0,0,0-.28-.73,2.52,2.52,0,0,0-.75-.5A9.16,9.16,0,0,0,189,61c-.4-.12-.8-.25-1.21-.41A10,10,0,0,1,186.6,60a4.43,4.43,0,0,1-1.06-.82,4.2,4.2,0,0,1-.75-1.22,4.74,4.74,0,0,1-.28-1.74,4.58,4.58,0,0,1,.35-1.8,4.22,4.22,0,0,1,1-1.51,5.16,5.16,0,0,1,1.75-1,7.29,7.29,0,0,1,2.45-.38,7.14,7.14,0,0,1,1.48.15,7.06,7.06,0,0,1,1.35.4,6.16,6.16,0,0,1,1.14.61,5.44,5.44,0,0,1,.92.77Z"/><path class="cls-1" d="M207.08,44.41h2.62V71.49h-2.62Z"/><path class="cls-2" d="M232.18,46.05v2.28h-9.39v7.21h8v2.27h-8v8.86h-2.66V46.05Z"/><path class="cls-2" d="M234.37,66.67V52.1h1.4a.71.71,0,0,1,.54.16,1,1,0,0,1,.21.54l.16,2.28a6.75,6.75,0,0,1,1.75-2.39,3.77,3.77,0,0,1,2.45-.85,3.36,3.36,0,0,1,1,.14,3.17,3.17,0,0,1,.86.38l-.31,1.91a.43.43,0,0,1-.43.36,2.1,2.1,0,0,1-.58-.14,3.66,3.66,0,0,0-1.11-.13,3.05,3.05,0,0,0-2.12.77,5.83,5.83,0,0,0-1.43,2.26v9.28Z"/><path class="cls-2" d="M248.62,47.52a1.82,1.82,0,0,1-.14.7,2.33,2.33,0,0,1-.38.58,1.82,1.82,0,0,1-.56.39,1.65,1.65,0,0,1-1.33,0,1.86,1.86,0,0,1-.54-.39,1.88,1.88,0,0,1-.38-.58,1.82,1.82,0,0,1-.14-.7,1.91,1.91,0,0,1,.14-.71,1.81,1.81,0,0,1,.38-.59,1.9,1.9,0,0,1,.54-.4,1.65,1.65,0,0,1,1.33,0,1.85,1.85,0,0,1,.56.4,2.22,2.22,0,0,1,.38.59A1.91,1.91,0,0,1,248.62,47.52Zm-.54,4.58V66.67h-2.43V52.1Z"/><path class="cls-2" d="M257.83,51.87a5.82,5.82,0,0,1,2.3.44,5.1,5.1,0,0,1,1.81,1.26,5.74,5.74,0,0,1,1.19,2,8.17,8.17,0,0,1,.44,2.77,1.72,1.72,0,0,1-.13.8.48.48,0,0,1-.46.2h-9.2a9,9,0,0,0,.35,2.41,4.92,4.92,0,0,0,.91,1.7,3.47,3.47,0,0,0,1.36,1,4.4,4.4,0,0,0,1.77.34,4.94,4.94,0,0,0,1.58-.22,7.83,7.83,0,0,0,1.14-.48c.32-.18.58-.34.8-.49a1,1,0,0,1,.55-.22.54.54,0,0,1,.47.24l.68.94a4.69,4.69,0,0,1-1.08,1,6.64,6.64,0,0,1-1.35.7,8.09,8.09,0,0,1-1.48.41,8.66,8.66,0,0,1-1.51.14,6.68,6.68,0,0,1-2.64-.52,5.85,5.85,0,0,1-2.09-1.49,7,7,0,0,1-1.37-2.44,10.35,10.35,0,0,1-.49-3.34,9.05,9.05,0,0,1,.44-2.85A6.73,6.73,0,0,1,253.1,54a5.83,5.83,0,0,1,2-1.53A6.36,6.36,0,0,1,257.83,51.87Zm.06,1.88a3.62,3.62,0,0,0-2.77,1.07,5.21,5.21,0,0,0-1.26,3h7.52a5.65,5.65,0,0,0-.23-1.64,3.65,3.65,0,0,0-.68-1.28,3,3,0,0,0-1.1-.83A3.49,3.49,0,0,0,257.89,53.75Z"/><path class="cls-2" d="M266.66,66.67V52.1h1.45a.62.62,0,0,1,.65.53l.2,1.58a7.8,7.8,0,0,1,2-1.69,4.94,4.94,0,0,1,2.57-.65,4.82,4.82,0,0,1,2,.39A3.93,3.93,0,0,1,277,53.39a5.09,5.09,0,0,1,.88,1.74,8,8,0,0,1,.3,2.26v9.28h-2.43V57.39a4.07,4.07,0,0,0-.72-2.57,2.64,2.64,0,0,0-2.19-.91,3.85,3.85,0,0,0-2,.55,6.62,6.62,0,0,0-1.73,1.48V66.67Z"/><path class="cls-2" d="M291.57,66.67a.62.62,0,0,1-.66-.53l-.21-1.77a7.4,7.4,0,0,1-2,1.82,4.94,4.94,0,0,1-2.61.69,4.77,4.77,0,0,1-2.16-.49A4.45,4.45,0,0,1,282.25,65a6.73,6.73,0,0,1-1.05-2.34,12.4,12.4,0,0,1-.37-3.2,10.26,10.26,0,0,1,.41-3A7.23,7.23,0,0,1,282.42,54a5.54,5.54,0,0,1,1.87-1.61,5.32,5.32,0,0,1,2.52-.58,4.83,4.83,0,0,1,2.17.45,5.26,5.26,0,0,1,1.61,1.28V45.48H293V66.67Zm-4.71-1.87a3.77,3.77,0,0,0,2.08-.57,6.21,6.21,0,0,0,1.65-1.63V55.55a4,4,0,0,0-1.47-1.33,4.1,4.1,0,0,0-1.77-.38,3.42,3.42,0,0,0-3,1.45,7,7,0,0,0-1,4.15,11.26,11.26,0,0,0,.23,2.43,4.86,4.86,0,0,0,.68,1.67,2.68,2.68,0,0,0,1.11,1A3.59,3.59,0,0,0,286.86,64.8Z"/><path class="cls-2" d="M305,54.5a.54.54,0,0,1-.5.32,1,1,0,0,1-.47-.16c-.17-.11-.38-.22-.63-.35a5.61,5.61,0,0,0-.9-.36,4,4,0,0,0-1.22-.17,3.5,3.5,0,0,0-1.11.17,2.59,2.59,0,0,0-.84.45,1.9,1.9,0,0,0-.53.67,1.78,1.78,0,0,0-.19.83,1.45,1.45,0,0,0,.31.93,2.79,2.79,0,0,0,.81.65,7.23,7.23,0,0,0,1.15.48l1.32.45c.45.16.88.33,1.31.52a4.65,4.65,0,0,1,1.15.72,3.15,3.15,0,0,1,.81,1.06,3.32,3.32,0,0,1,.31,1.5,5.18,5.18,0,0,1-.34,1.87,4.2,4.2,0,0,1-1,1.48,4.78,4.78,0,0,1-1.64,1,6.42,6.42,0,0,1-2.24.36,6.68,6.68,0,0,1-2.62-.49,6.49,6.49,0,0,1-2-1.28l.57-1a.74.74,0,0,1,.26-.29.68.68,0,0,1,.4-.1.88.88,0,0,1,.52.2c.18.13.4.28.66.44a4.33,4.33,0,0,0,.94.45,4.19,4.19,0,0,0,1.38.2,3.65,3.65,0,0,0,1.25-.19,2.55,2.55,0,0,0,.88-.53,2.09,2.09,0,0,0,.53-.76,2.55,2.55,0,0,0,.17-.92,1.55,1.55,0,0,0-.31-1,2.62,2.62,0,0,0-.81-.68,7.23,7.23,0,0,0-1.15-.49c-.44-.14-.88-.28-1.33-.44a12.47,12.47,0,0,1-1.32-.52,4.54,4.54,0,0,1-1.15-.74,3.48,3.48,0,0,1-.82-1.1,3.82,3.82,0,0,1-.3-1.59,4.24,4.24,0,0,1,.32-1.61,4,4,0,0,1,1-1.35,4.63,4.63,0,0,1,1.54-.93,5.91,5.91,0,0,1,2.09-.34,6.33,6.33,0,0,1,2.45.45,5.78,5.78,0,0,1,1.88,1.25Z"/><path class="cls-2" d="M319.8,51.87a6.7,6.7,0,0,1,2.74.53,5.69,5.69,0,0,1,2.07,1.51,6.64,6.64,0,0,1,1.31,2.37,10.71,10.71,0,0,1,0,6.21,6.77,6.77,0,0,1-1.31,2.36,5.66,5.66,0,0,1-2.07,1.5,7.32,7.32,0,0,1-5.47,0,5.7,5.7,0,0,1-2.08-1.5,6.8,6.8,0,0,1-1.33-2.36,10.71,10.71,0,0,1,0-6.21A6.67,6.67,0,0,1,315,53.91a5.72,5.72,0,0,1,2.08-1.51A6.65,6.65,0,0,1,319.8,51.87Zm0,13a3.49,3.49,0,0,0,3.06-1.45,7,7,0,0,0,1-4,7.08,7.08,0,0,0-1-4.06,3.49,3.49,0,0,0-3.06-1.45,4,4,0,0,0-1.8.38,3.45,3.45,0,0,0-1.27,1.07,4.87,4.87,0,0,0-.77,1.74,10.89,10.89,0,0,0,0,4.64,4.77,4.77,0,0,0,.77,1.72A3.45,3.45,0,0,0,318,64.5,4,4,0,0,0,319.8,64.88Z"/><path class="cls-2" d="M329.93,66.67V54.28l-1.53-.18a1.09,1.09,0,0,1-.47-.23.52.52,0,0,1-.18-.43v-1h2.18V51a6.93,6.93,0,0,1,.33-2.23,4.83,4.83,0,0,1,1-1.64,4.06,4.06,0,0,1,1.49-1,5.36,5.36,0,0,1,2-.35,5,5,0,0,1,1.72.29l-.06,1.28c0,.19-.08.31-.23.35a3.09,3.09,0,0,1-.61,0h-.42a3.41,3.41,0,0,0-1.14.18,2,2,0,0,0-.88.56,2.52,2.52,0,0,0-.57,1,5.35,5.35,0,0,0-.2,1.57v1.34h4v1.85h-3.92V66.67Z"/><path class="cls-2" d="M353,64.64a13.23,13.23,0,0,0,1.46-.07,10.9,10.9,0,0,0,1.24-.24,8.5,8.5,0,0,0,1.11-.38c.35-.15.69-.32,1-.51V58.89h-3a.55.55,0,0,1-.42-.16.53.53,0,0,1-.16-.39V56.76h6v7.91a10,10,0,0,1-1.54,1,10.27,10.27,0,0,1-1.7.7,11.38,11.38,0,0,1-1.95.42,17.49,17.49,0,0,1-2.25.13,9.56,9.56,0,0,1-3.9-.77A9.07,9.07,0,0,1,345.8,64a10,10,0,0,1-2-3.34,12.19,12.19,0,0,1-.71-4.27,12.51,12.51,0,0,1,.7-4.3,9.58,9.58,0,0,1,2-3.33A8.87,8.87,0,0,1,349,46.59a10.72,10.72,0,0,1,4.14-.77,12.26,12.26,0,0,1,2.16.18,9.89,9.89,0,0,1,1.84.52,8.73,8.73,0,0,1,1.58.82A10.06,10.06,0,0,1,360,48.43l-.75,1.26a.68.68,0,0,1-.6.39.94.94,0,0,1-.48-.16c-.22-.13-.48-.29-.76-.48a6.11,6.11,0,0,0-1-.56,7.54,7.54,0,0,0-1.43-.45,8.68,8.68,0,0,0-2-.19,7.55,7.55,0,0,0-3,.57,6.32,6.32,0,0,0-2.28,1.63A7.19,7.19,0,0,0,346.29,53a11.79,11.79,0,0,0,0,6.86,7.59,7.59,0,0,0,1.48,2.6,6.39,6.39,0,0,0,2.27,1.62A7.16,7.16,0,0,0,353,64.64Z"/><path class="cls-2" d="M366.59,45.48V66.67h-2.43V45.48Z"/><path class="cls-2" d="M381,66.67H380a1.23,1.23,0,0,1-.58-.11.64.64,0,0,1-.28-.49l-.28-1.35c-.36.34-.71.65-1.06.92a5.42,5.42,0,0,1-2.31,1.12,6.52,6.52,0,0,1-1.44.14,4.92,4.92,0,0,1-1.51-.23,3.32,3.32,0,0,1-1.22-.72,3.48,3.48,0,0,1-.83-1.2,4.57,4.57,0,0,1-.31-1.73,3.38,3.38,0,0,1,.45-1.67A4.07,4.07,0,0,1,372,59.93a9.37,9.37,0,0,1,2.63-1,17.22,17.22,0,0,1,4-.39V57.37a4.09,4.09,0,0,0-.69-2.58,2.43,2.43,0,0,0-2-.88,4.14,4.14,0,0,0-1.5.24,5.71,5.71,0,0,0-1.05.53c-.29.2-.55.37-.76.53a1.09,1.09,0,0,1-.64.24.74.74,0,0,1-.43-.14,1,1,0,0,1-.29-.33l-.44-.82a8.06,8.06,0,0,1,2.47-1.75,7.38,7.38,0,0,1,2.94-.57,5,5,0,0,1,2.06.4,4.23,4.23,0,0,1,1.51,1.12,4.8,4.8,0,0,1,.93,1.75,7.53,7.53,0,0,1,.32,2.24Zm-6.31-1.56a4.69,4.69,0,0,0,1.17-.14,4.4,4.4,0,0,0,1-.39,5.71,5.71,0,0,0,.9-.61,9.17,9.17,0,0,0,.84-.82v-3a15.52,15.52,0,0,0-2.86.23,7.9,7.9,0,0,0-1.91.58,2.72,2.72,0,0,0-1.07.86,1.9,1.9,0,0,0-.33,1.1,2.5,2.5,0,0,0,.18,1,1.8,1.8,0,0,0,.47.69,1.83,1.83,0,0,0,.71.39A3.19,3.19,0,0,0,374.72,65.11Z"/><path class="cls-2" d="M392.62,54.5a.52.52,0,0,1-.5.32.94.94,0,0,1-.46-.16c-.18-.11-.39-.22-.64-.35a5.86,5.86,0,0,0-.89-.36,4.11,4.11,0,0,0-1.23-.17,3.5,3.5,0,0,0-1.11.17,2.81,2.81,0,0,0-.84.45,1.89,1.89,0,0,0-.71,1.5,1.44,1.44,0,0,0,.3.93,2.71,2.71,0,0,0,.82.65,7.11,7.11,0,0,0,1.14.48l1.32.45c.45.16.89.33,1.32.52a4.59,4.59,0,0,1,1.14.72,3.32,3.32,0,0,1,.82,1.06,3.46,3.46,0,0,1,.3,1.5,5,5,0,0,1-.34,1.87,4.07,4.07,0,0,1-1,1.48,4.68,4.68,0,0,1-1.64,1,6.36,6.36,0,0,1-2.23.36,6.65,6.65,0,0,1-2.62-.49,6.54,6.54,0,0,1-2-1.28l.58-1a.67.67,0,0,1,.26-.29.67.67,0,0,1,.39-.1.83.83,0,0,1,.52.2c.18.13.4.28.66.44a4.33,4.33,0,0,0,.94.45,4.22,4.22,0,0,0,1.39.2,3.59,3.59,0,0,0,1.24-.19,2.6,2.6,0,0,0,.89-.53,2.07,2.07,0,0,0,.52-.76,2.35,2.35,0,0,0,.17-.92,1.61,1.61,0,0,0-.3-1A2.79,2.79,0,0,0,390,61a6.85,6.85,0,0,0-1.15-.49l-1.32-.44a13.55,13.55,0,0,1-1.33-.52,4.72,4.72,0,0,1-1.15-.74,3.31,3.31,0,0,1-.81-1.1,3.67,3.67,0,0,1-.31-1.59,4,4,0,0,1,1.28-3,4.67,4.67,0,0,1,1.55-.93,5.86,5.86,0,0,1,2.08-.34,6.33,6.33,0,0,1,2.45.45,5.68,5.68,0,0,1,1.88,1.25Z"/><path class="cls-2" d="M401.21,51.85a6.44,6.44,0,0,1,1.68.21,5.1,5.1,0,0,1,1.43.61h3.75v.95c0,.32-.19.52-.57.61l-1.57.23a4.6,4.6,0,0,1,.46,2.08,4.87,4.87,0,0,1-.38,1.94A4.36,4.36,0,0,1,404.93,60a4.84,4.84,0,0,1-1.64,1,6.3,6.3,0,0,1-2.08.33,6.37,6.37,0,0,1-1.83-.25,2.53,2.53,0,0,0-.66.64,1.25,1.25,0,0,0-.23.67.9.9,0,0,0,.4.81,2.53,2.53,0,0,0,1.05.4,8.32,8.32,0,0,0,1.49.12h1.7a8.82,8.82,0,0,1,1.7.16,4.8,4.8,0,0,1,1.48.52,2.75,2.75,0,0,1,1.05,1,3,3,0,0,1,.4,1.66,4.11,4.11,0,0,1-.44,1.83A4.93,4.93,0,0,1,406,70.4a6.58,6.58,0,0,1-2,1.11,8.22,8.22,0,0,1-2.72.42,10,10,0,0,1-2.65-.32,6.13,6.13,0,0,1-1.89-.85,3.73,3.73,0,0,1-1.13-1.23,3.08,3.08,0,0,1-.37-1.47,2.71,2.71,0,0,1,.64-1.83,4.38,4.38,0,0,1,1.78-1.2,2.53,2.53,0,0,1-.93-.77,2.33,2.33,0,0,1-.24-1.94,2.45,2.45,0,0,1,.33-.67,4.08,4.08,0,0,1,.56-.63,3.54,3.54,0,0,1,.76-.53,4.41,4.41,0,0,1-1.6-1.61,4.51,4.51,0,0,1-.58-2.34,4.65,4.65,0,0,1,.39-1.93,4.23,4.23,0,0,1,1.08-1.48,4.93,4.93,0,0,1,1.66-1A6.44,6.44,0,0,1,401.21,51.85Zm4.31,15.56a1.27,1.27,0,0,0-.29-.89,1.78,1.78,0,0,0-.77-.52,4.54,4.54,0,0,0-1.14-.27,9.56,9.56,0,0,0-1.35-.09h-1.44a5.06,5.06,0,0,1-1.41-.2,4,4,0,0,0-1.26,1,2,2,0,0,0-.49,1.34,1.83,1.83,0,0,0,.24.92,2.12,2.12,0,0,0,.73.73,4.06,4.06,0,0,0,1.24.49,7.48,7.48,0,0,0,1.75.18,7.25,7.25,0,0,0,1.76-.19,4,4,0,0,0,1.32-.54,2.43,2.43,0,0,0,.82-.84A2,2,0,0,0,405.52,67.41Zm-4.31-7.86a3.51,3.51,0,0,0,1.3-.22,2.49,2.49,0,0,0,.95-.6,2.46,2.46,0,0,0,.57-.93,3.44,3.44,0,0,0,.19-1.18,2.87,2.87,0,0,0-.77-2.13,3.52,3.52,0,0,0-4.47,0,2.87,2.87,0,0,0-.77,2.13,3.44,3.44,0,0,0,.19,1.18,2.76,2.76,0,0,0,.58.93,2.57,2.57,0,0,0,.95.6A3.4,3.4,0,0,0,401.21,59.55Z"/><path class="cls-2" d="M416.1,51.87a6.65,6.65,0,0,1,2.73.53,5.72,5.72,0,0,1,2.08,1.51,6.79,6.79,0,0,1,1.31,2.37,10.94,10.94,0,0,1,0,6.21,6.93,6.93,0,0,1-1.31,2.36,5.7,5.7,0,0,1-2.08,1.5,7.32,7.32,0,0,1-5.47,0,5.78,5.78,0,0,1-2.08-1.5A6.79,6.79,0,0,1,410,62.49a10.49,10.49,0,0,1,0-6.21,6.66,6.66,0,0,1,1.32-2.37,5.81,5.81,0,0,1,2.08-1.51A6.7,6.7,0,0,1,416.1,51.87Zm0,13a3.48,3.48,0,0,0,3-1.45,6.94,6.94,0,0,0,1-4,7,7,0,0,0-1-4.06,3.48,3.48,0,0,0-3-1.45,4.09,4.09,0,0,0-1.81.38A3.54,3.54,0,0,0,413,55.33a5.05,5.05,0,0,0-.77,1.74,10.89,10.89,0,0,0,0,4.64,5,5,0,0,0,.77,1.72,3.54,3.54,0,0,0,1.27,1.07A4.09,4.09,0,0,0,416.1,64.88Z"/><path class="cls-2" d="M423.88,52.1h1.91a.72.72,0,0,1,.49.16.79.79,0,0,1,.26.37L429.18,62c.08.35.15.68.21,1s.12.65.16,1c.08-.32.16-.65.25-1s.19-.65.28-1L433,52.57a.77.77,0,0,1,.23-.36.69.69,0,0,1,.43-.14h1.06a.73.73,0,0,1,.45.14.79.79,0,0,1,.24.36L438.27,62q.15.51.27,1c.08.33.15.65.22,1q.08-.48.18-1c.07-.35.15-.67.23-1l2.71-9.38a.71.71,0,0,1,.26-.38.68.68,0,0,1,.45-.15h1.83l-4.48,14.57H438c-.23,0-.4-.16-.49-.49l-3-9.88a3.9,3.9,0,0,1-.18-.67c-.05-.23-.09-.45-.14-.67,0,.22-.09.45-.13.68s-.11.45-.18.67l-3.1,9.87c-.1.33-.29.49-.56.49h-1.83Z"/><path class="cls-2" d="M461,64.64a13.11,13.11,0,0,0,1.46-.07,11.09,11.09,0,0,0,1.25-.24,8.35,8.35,0,0,0,1.1-.38c.35-.15.69-.32,1-.51V58.89h-3a.57.57,0,0,1-.42-.16.53.53,0,0,1-.15-.39V56.76h6v7.91A10.13,10.13,0,0,1,465,66.35a11.47,11.47,0,0,1-1.94.42,17.76,17.76,0,0,1-2.26.13,9.56,9.56,0,0,1-3.9-.77A9.07,9.07,0,0,1,453.8,64a10,10,0,0,1-2-3.34,13.37,13.37,0,0,1,0-8.57,9.46,9.46,0,0,1,2-3.33A8.92,8.92,0,0,1,457,46.59a10.72,10.72,0,0,1,4.14-.77,12.26,12.26,0,0,1,2.16.18,10.22,10.22,0,0,1,1.85.52,8.63,8.63,0,0,1,1.57.82A8.94,8.94,0,0,1,468,48.43l-.75,1.26a.68.68,0,0,1-.6.39.88.88,0,0,1-.47-.16c-.23-.13-.49-.29-.77-.48a5.74,5.74,0,0,0-1-.56,7.32,7.32,0,0,0-1.43-.45,8.68,8.68,0,0,0-2-.19,7.55,7.55,0,0,0-3,.57,6.32,6.32,0,0,0-2.28,1.63A7.19,7.19,0,0,0,454.29,53a10.7,10.7,0,0,0-.5,3.37,10.45,10.45,0,0,0,.53,3.49,7.43,7.43,0,0,0,1.48,2.6,6.27,6.27,0,0,0,2.26,1.62A7.16,7.16,0,0,0,461,64.64Z"/><path class="cls-2" d="M482,66.67H481a1.16,1.16,0,0,1-.57-.11.65.65,0,0,1-.29-.49l-.27-1.35c-.37.34-.72.65-1.07.92a5.76,5.76,0,0,1-1.09.7,6.05,6.05,0,0,1-1.22.42,6.4,6.4,0,0,1-1.44.14,4.92,4.92,0,0,1-1.51-.23,3.4,3.4,0,0,1-1.22-.72,3.46,3.46,0,0,1-.82-1.2,4.38,4.38,0,0,1-.31-1.73,3.38,3.38,0,0,1,.45-1.67,4,4,0,0,1,1.45-1.42,9.49,9.49,0,0,1,2.63-1,17.29,17.29,0,0,1,4-.39V57.37a4.09,4.09,0,0,0-.69-2.58,2.43,2.43,0,0,0-2-.88,4,4,0,0,0-1.49.24,5.14,5.14,0,0,0-1.05.53l-.77.53a1,1,0,0,1-.63.24.69.69,0,0,1-.43-.14,1,1,0,0,1-.3-.33l-.43-.82a8,8,0,0,1,2.47-1.75,7.33,7.33,0,0,1,2.93-.57,5,5,0,0,1,2.06.4,4.27,4.27,0,0,1,1.52,1.12,4.8,4.8,0,0,1,.93,1.75,7.87,7.87,0,0,1,.31,2.24Zm-6.31-1.56a4.83,4.83,0,0,0,1.18-.14,4.33,4.33,0,0,0,1-.39,4.92,4.92,0,0,0,.9-.61,7.18,7.18,0,0,0,.84-.82v-3a15.33,15.33,0,0,0-2.85.23,7.76,7.76,0,0,0-1.91.58,2.65,2.65,0,0,0-1.07.86,1.84,1.84,0,0,0-.34,1.1,2.5,2.5,0,0,0,.18,1,1.94,1.94,0,0,0,.48.69,1.76,1.76,0,0,0,.71.39A3.12,3.12,0,0,0,475.73,65.11Z"/><path class="cls-2" d="M488.43,45.48V66.67H486V45.48Z"/><path class="cls-2" d="M495.41,45.48V66.67H493V45.48Z"/><path class="cls-2" d="M505.17,51.87a5.74,5.74,0,0,1,2.29.44,5.13,5.13,0,0,1,1.82,1.26,5.74,5.74,0,0,1,1.19,2,8.18,8.18,0,0,1,.43,2.77,1.75,1.75,0,0,1-.12.8.49.49,0,0,1-.46.2h-9.2a8.57,8.57,0,0,0,.35,2.41,5.08,5.08,0,0,0,.9,1.7,3.57,3.57,0,0,0,1.37,1,4.4,4.4,0,0,0,1.77.34,4.94,4.94,0,0,0,1.58-.22,7.83,7.83,0,0,0,1.14-.48c.32-.18.58-.34.8-.49a1,1,0,0,1,.55-.22.52.52,0,0,1,.46.24l.69.94a4.9,4.9,0,0,1-1.08,1,6.64,6.64,0,0,1-1.35.7,8.09,8.09,0,0,1-1.48.41,8.66,8.66,0,0,1-1.51.14,6.68,6.68,0,0,1-2.64-.52,5.85,5.85,0,0,1-2.09-1.49,7,7,0,0,1-1.37-2.44,10.35,10.35,0,0,1-.49-3.34,8.78,8.78,0,0,1,.44-2.85A6.73,6.73,0,0,1,500.44,54a5.83,5.83,0,0,1,2-1.53A6.36,6.36,0,0,1,505.17,51.87Zm.06,1.88a3.62,3.62,0,0,0-2.77,1.07,5.14,5.14,0,0,0-1.26,3h7.52a5.65,5.65,0,0,0-.23-1.64,3.67,3.67,0,0,0-.69-1.28,3,3,0,0,0-1.09-.83A3.53,3.53,0,0,0,505.23,53.75Z"/><path class="cls-2" d="M514,66.67V52.1h1.39a.72.72,0,0,1,.55.16.91.91,0,0,1,.2.54l.17,2.28a6.63,6.63,0,0,1,1.75-2.39,3.75,3.75,0,0,1,2.45-.85,3.4,3.4,0,0,1,1,.14,3.31,3.31,0,0,1,.86.38l-.32,1.91a.41.41,0,0,1-.42.36,2.15,2.15,0,0,1-.59-.14,3.54,3.54,0,0,0-1.1-.13,3,3,0,0,0-2.12.77,5.83,5.83,0,0,0-1.43,2.26v9.28Z"/><path class="cls-2" d="M529.05,71a1.41,1.41,0,0,1-.3.46.86.86,0,0,1-.57.17h-1.8l2.52-5.79L523.2,52.1h2.1a.69.69,0,0,1,.49.16,1,1,0,0,1,.26.37l3.7,9.18q.12.31.21.63c.06.21.11.43.16.65.06-.22.13-.44.19-.65s.14-.42.22-.64l3.59-9.17a.75.75,0,0,1,.28-.38.68.68,0,0,1,.43-.15h1.93Z"/><path class="cls-2" d="M549.84,51.87a6.65,6.65,0,0,1,2.73.53,5.72,5.72,0,0,1,2.08,1.51A6.79,6.79,0,0,1,556,56.28a10.71,10.71,0,0,1,0,6.21,6.93,6.93,0,0,1-1.31,2.36,5.7,5.7,0,0,1-2.08,1.5,6.82,6.82,0,0,1-2.73.53,6.9,6.9,0,0,1-2.74-.53,5.78,5.78,0,0,1-2.08-1.5,7,7,0,0,1-1.32-2.36,10.49,10.49,0,0,1,0-6.21A6.81,6.81,0,0,1,545,53.91a5.81,5.81,0,0,1,2.08-1.51A6.73,6.73,0,0,1,549.84,51.87Zm0,13a3.48,3.48,0,0,0,3-1.45,6.94,6.94,0,0,0,1-4,7,7,0,0,0-1-4.06,3.48,3.48,0,0,0-3-1.45,4,4,0,0,0-1.8.38,3.48,3.48,0,0,0-1.28,1.07,4.86,4.86,0,0,0-.76,1.74,10.48,10.48,0,0,0,0,4.64,4.76,4.76,0,0,0,.76,1.72A3.48,3.48,0,0,0,548,64.5,4,4,0,0,0,549.84,64.88Z"/><path class="cls-2" d="M560,66.67V54.28l-1.52-.18a1.13,1.13,0,0,1-.48-.23.52.52,0,0,1-.18-.43v-1H560V51a6.92,6.92,0,0,1,.34-2.23,4.66,4.66,0,0,1,1-1.64,4.19,4.19,0,0,1,1.5-1,5.3,5.3,0,0,1,2-.35,5,5,0,0,1,1.72.29l0,1.28a.34.34,0,0,1-.23.35,3.2,3.2,0,0,1-.62,0h-.42a3.41,3.41,0,0,0-1.14.18,2,2,0,0,0-.88.56,2.64,2.64,0,0,0-.57,1,5.39,5.39,0,0,0-.19,1.57v1.34h4v1.85h-3.91V66.67Z"/><path class="cls-2" d="M584.22,60c.1.25.19.51.28.77.09-.27.19-.53.29-.77a8.11,8.11,0,0,1,.34-.74l6.62-12.68c.12-.22.24-.36.37-.4a1.5,1.5,0,0,1,.54-.08h2V66.67h-2.32V51.52c0-.2,0-.41,0-.65s0-.46,0-.7l-6.7,12.89a1.06,1.06,0,0,1-1,.65h-.38a1,1,0,0,1-.95-.65L576.5,50.13c0,.25,0,.49.07.73s0,.46,0,.66V66.67h-2.32V46.05h2a1.5,1.5,0,0,1,.54.08c.13,0,.25.18.37.4l6.76,12.69A5.4,5.4,0,0,1,584.22,60Z"/><path class="cls-2" d="M604.59,51.87a6.73,6.73,0,0,1,2.74.53,5.77,5.77,0,0,1,2.07,1.51,6.64,6.64,0,0,1,1.31,2.37,10.71,10.71,0,0,1,0,6.21,6.77,6.77,0,0,1-1.31,2.36,5.75,5.75,0,0,1-2.07,1.5,7.35,7.35,0,0,1-5.48,0,5.87,5.87,0,0,1-2.08-1.5,7,7,0,0,1-1.32-2.36,10.49,10.49,0,0,1,0-6.21,6.81,6.81,0,0,1,1.32-2.37,5.9,5.9,0,0,1,2.08-1.51A6.73,6.73,0,0,1,604.59,51.87Zm0,13a3.51,3.51,0,0,0,3.06-1.45,7,7,0,0,0,1-4,7.08,7.08,0,0,0-1-4.06,3.51,3.51,0,0,0-3.06-1.45,4,4,0,0,0-1.8.38,3.48,3.48,0,0,0-1.28,1.07,5,5,0,0,0-.76,1.74,10.89,10.89,0,0,0,0,4.64,4.94,4.94,0,0,0,.76,1.72,3.48,3.48,0,0,0,1.28,1.07A4,4,0,0,0,604.59,64.88Z"/><path class="cls-2" d="M623.9,66.67a.61.61,0,0,1-.65-.53L623,64.37a7.26,7.26,0,0,1-2,1.82,4.94,4.94,0,0,1-2.61.69,4.83,4.83,0,0,1-2.16-.49A4.45,4.45,0,0,1,614.58,65a6.73,6.73,0,0,1-1.05-2.34,12.4,12.4,0,0,1-.37-3.2,10.61,10.61,0,0,1,.41-3A7.43,7.43,0,0,1,614.75,54a5.48,5.48,0,0,1,1.88-1.61,5.25,5.25,0,0,1,2.51-.58,4.83,4.83,0,0,1,2.17.45,5.15,5.15,0,0,1,1.61,1.28V45.48h2.43V66.67Zm-4.71-1.87a3.77,3.77,0,0,0,2.08-.57,6.21,6.21,0,0,0,1.65-1.63V55.55a4,4,0,0,0-1.47-1.33,4.1,4.1,0,0,0-1.77-.38,3.42,3.42,0,0,0-3,1.45,7.08,7.08,0,0,0-1,4.15,11.26,11.26,0,0,0,.23,2.43,4.86,4.86,0,0,0,.69,1.67,2.65,2.65,0,0,0,1.1,1A3.59,3.59,0,0,0,619.19,64.8Z"/><path class="cls-2" d="M634.9,51.87a5.74,5.74,0,0,1,2.29.44A5.13,5.13,0,0,1,639,53.57a5.74,5.74,0,0,1,1.19,2,8.18,8.18,0,0,1,.43,2.77,1.75,1.75,0,0,1-.12.8.49.49,0,0,1-.47.2h-9.19a8.22,8.22,0,0,0,.35,2.41,5.08,5.08,0,0,0,.9,1.7,3.5,3.5,0,0,0,1.37,1,4.37,4.37,0,0,0,1.77.34,4.94,4.94,0,0,0,1.58-.22,7.83,7.83,0,0,0,1.14-.48,8.8,8.8,0,0,0,.79-.49,1,1,0,0,1,.56-.22.52.52,0,0,1,.46.24l.68.94a4.85,4.85,0,0,1-1.07,1,6.64,6.64,0,0,1-1.35.7,8.32,8.32,0,0,1-1.48.41,8.66,8.66,0,0,1-1.51.14,6.68,6.68,0,0,1-2.64-.52,5.76,5.76,0,0,1-2.09-1.49,6.8,6.8,0,0,1-1.37-2.44,10.34,10.34,0,0,1-.5-3.34,8.78,8.78,0,0,1,.45-2.85A6.71,6.71,0,0,1,630.16,54a6,6,0,0,1,2-1.53A6.36,6.36,0,0,1,634.9,51.87Zm.05,1.88a3.65,3.65,0,0,0-2.77,1.07,5.2,5.2,0,0,0-1.25,3h7.52a5.65,5.65,0,0,0-.23-1.64,3.84,3.84,0,0,0-.69-1.28,2.92,2.92,0,0,0-1.1-.83A3.46,3.46,0,0,0,635,53.75Z"/><path class="cls-2" d="M643.73,66.67V52.1h1.39a.72.72,0,0,1,.55.16.91.91,0,0,1,.2.54l.17,2.28a6.63,6.63,0,0,1,1.75-2.39,3.75,3.75,0,0,1,2.45-.85,3.4,3.4,0,0,1,1,.14,3.31,3.31,0,0,1,.86.38l-.32,1.91a.41.41,0,0,1-.42.36,2.15,2.15,0,0,1-.59-.14,3.54,3.54,0,0,0-1.1-.13,3.08,3.08,0,0,0-2.13.77,5.93,5.93,0,0,0-1.42,2.26v9.28Z"/><path class="cls-2" d="M654.73,66.67V52.1h1.45a.63.63,0,0,1,.65.53l.19,1.58a7.8,7.8,0,0,1,2-1.69,5,5,0,0,1,2.58-.65,4.86,4.86,0,0,1,2,.39,3.9,3.9,0,0,1,1.44,1.13,4.92,4.92,0,0,1,.88,1.74,8,8,0,0,1,.3,2.26v9.28H663.8V57.39a4.07,4.07,0,0,0-.71-2.57,2.64,2.64,0,0,0-2.19-.91,3.91,3.91,0,0,0-2,.55,6.75,6.75,0,0,0-1.72,1.48V66.67Z"/><path class="cls-2" d="M691.64,66.67h-2a.89.89,0,0,1-.58-.18,1.23,1.23,0,0,1-.32-.48l-1.83-5h-8.78l-1.83,5a1.1,1.1,0,0,1-.32.46.84.84,0,0,1-.58.2h-2l7.82-20.62h2.68ZM678.83,59h7.3l-3.07-8.39a16.54,16.54,0,0,1-.59-1.94c-.1.39-.19.75-.29,1.08s-.19.63-.28.87Z"/><path class="cls-2" d="M693.73,66.67V52.1h1.39a.72.72,0,0,1,.55.16,1,1,0,0,1,.21.54l.16,2.28a6.75,6.75,0,0,1,1.75-2.39,3.77,3.77,0,0,1,2.45-.85,3.4,3.4,0,0,1,1,.14,3.17,3.17,0,0,1,.86.38l-.31,1.91a.43.43,0,0,1-.43.36,2.1,2.1,0,0,1-.58-.14,3.66,3.66,0,0,0-1.11-.13,3.05,3.05,0,0,0-2.12.77,5.83,5.83,0,0,0-1.43,2.26v9.28Z"/><path class="cls-2" d="M708.92,66.9a3.26,3.26,0,0,1-2.52-1,4,4,0,0,1-.88-2.78V54.24h-1.66a.52.52,0,0,1-.37-.13.58.58,0,0,1-.15-.43v-1l2.27-.3.56-4.51a.51.51,0,0,1,.17-.35.56.56,0,0,1,.38-.14H708v5h4v1.85h-4V63a1.91,1.91,0,0,0,.43,1.37,1.45,1.45,0,0,0,1.09.44,1.69,1.69,0,0,0,.66-.11,2.7,2.7,0,0,0,.48-.23l.35-.24a.48.48,0,0,1,.25-.11.42.42,0,0,1,.35.25l.7,1.22a4.36,4.36,0,0,1-1.51,1A4.8,4.8,0,0,1,708.92,66.9Z"/></g></g></svg>