<svg xmlns="http://www.w3.org/2000/svg" viewBox="0 0 271.03 318.9"><defs><style>.cls-1{fill:#fff;}</style></defs><title>ArtOfGlassWhite</title><g id="Layer_2" data-name="Layer 2"><g id="Layer_1-2" data-name="Layer 1"><path class="cls-1" d="M140.07,132.14c.71.36.89.85.53,1.48-.8,1.6-1.56,3.06-2.27,4.35s-1.55,2.77-2.48,4.42-2,3.33-3.15,5a60.25,60.25,0,0,1-9.78,12.46,9,9,0,0,1-2,1.74,9.52,9.52,0,0,1-2.15,1.14,5.31,5.31,0,0,1-2.54.34,9.71,9.71,0,0,1-6.37-2.75,13.48,13.48,0,0,1-3.15-5.7,23.26,23.26,0,0,1-.8-7.1,46.77,46.77,0,0,1,.8-7.23c-2-.72-4.2-1.5-6.43-2.35s-4.47-1.72-6.7-2.61q-7.11,6.7-15,13a145.42,145.42,0,0,1-16.21,11.25Q52,165.77,44.06,169.86a75.12,75.12,0,0,1-14.41,5.83,29.71,29.71,0,0,1-11.79,1,22.7,22.7,0,0,1-10.32-4.36A16.11,16.11,0,0,1,1,163.57a27.44,27.44,0,0,1-.8-11.19,47.1,47.1,0,0,1,3.08-11.73A62.36,62.36,0,0,1,8.48,130.4a63.52,63.52,0,0,1,9.11-11.59,60.88,60.88,0,0,1,11.33-9.11,38.66,38.66,0,0,1,12.12-5,20.11,20.11,0,0,1,11.53.67A6.37,6.37,0,0,1,55.51,109a19.49,19.49,0,0,1,.81,6.3,38.64,38.64,0,0,1-2.15,10.85,46.34,46.34,0,0,1,9.45-.67,58.73,58.73,0,0,1,10.65,1.34q4.56,1.08,9.32,2.41T93,132q2.28-2.14,7-7t10.18-11.25q5.43-6.36,10.66-13.54a81.19,81.19,0,0,0,8.3-13.87,5.94,5.94,0,0,1,.47-1.6,1.61,1.61,0,0,1,1.54-1.21c.45,0,1.12.6,2,1.81a17.3,17.3,0,0,1,2.35,4.76,22.08,22.08,0,0,1,1.07,6.7,16.71,16.71,0,0,1-1.94,7.77q-2.69,4.69-5.23,9.38-2.28,4-4.69,8.91T120.64,132a12.21,12.21,0,0,1-.4,1.61c-.18.44-.39,1-.61,1.67s-.42,1.41-.6,2.21a15.91,15.91,0,0,0,7.64-2,.61.61,0,0,1,.8.07.51.51,0,0,1,.14.74,10.76,10.76,0,0,1-.88,1.87,7,7,0,0,1-1.74,2,10.33,10.33,0,0,1-2.88,1.61,11.93,11.93,0,0,1-4.29.67,51.6,51.6,0,0,0-1.07,7.3,17.66,17.66,0,0,0,.54,6.37,3.34,3.34,0,0,0,1.2,2.21,1.9,1.9,0,0,0,1.61.2,3.72,3.72,0,0,0,1.88-.94q3.61-3.34,8.84-11.39c1.07-1.69,2.08-3.37,3-5s1.76-3.11,2.48-4.36q1.2-2.28,2.14-4.15C138.73,132,139.26,131.79,140.07,132.14ZM14.24,171.4q2.55,2.68,8,2.08a50.18,50.18,0,0,0,12.66-3.42,146.88,146.88,0,0,0,15.35-7.16q8.18-4.36,15.88-9.38t14.2-10.12a119.54,119.54,0,0,0,10.52-9.11q-5.22-2.14-10.18-3.82a41.47,41.47,0,0,0-8.85-2.08,66.93,66.93,0,0,0-9.51-.13,43.57,43.57,0,0,0-9.52,1.6,64.05,64.05,0,0,1-5.89,11.93,49.63,49.63,0,0,1-6.3,8A19.92,19.92,0,0,1,35,154.05c-1.7.76-3,.92-3.88.47a5.45,5.45,0,0,1-1.81-2A9.4,9.4,0,0,1,28,148.56a13.28,13.28,0,0,1,.61-5.3,15.25,15.25,0,0,1,3.82-6,40,40,0,0,1,7.37-6,34.26,34.26,0,0,1,9.91-4.22,29.8,29.8,0,0,0,2.88-7.24,22.27,22.27,0,0,0,.67-5.56,9.79,9.79,0,0,0-.67-3.68A2.91,2.91,0,0,0,51.36,109a11.84,11.84,0,0,0-3.55-.13q-2.88.14-7.37,2.68A50.13,50.13,0,0,0,30.12,120q-5.84,5.89-12.66,17.15a50,50,0,0,0-5.9,12.6,55.07,55.07,0,0,0-1.34,5.56A21.91,21.91,0,0,0,9.89,161a19.42,19.42,0,0,0,1.2,5.5A14.84,14.84,0,0,0,14.24,171.4Zm32.43-39.26a29.72,29.72,0,0,0-7.5,4.83,28.09,28.09,0,0,0-5.77,7.1,11.71,11.71,0,0,0,3.89-1.88,25.83,25.83,0,0,0,4.22-3.55A45.37,45.37,0,0,0,46.67,132.14ZM96,133c2.06.62,4,1.2,6,1.74s3.78,1,5.57,1.47c.17-.8.35-1.56.53-2.28a14.22,14.22,0,0,1,.54-1.74c.18-.53.35-1,.53-1.47q2.28-6.3,5-12.2t5.63-11.25q-3.48,4.29-9.65,11.19T96,133Z"/><path class="cls-1" d="M169.55,132.14c.71.36.89.85.53,1.48-.8,1.6-1.54,3.06-2.21,4.35s-1.5,2.77-2.48,4.42-2,3.33-3.08,5q-9,14.21-15.54,16.08a7.41,7.41,0,0,1-1.61.27,5.78,5.78,0,0,1-2.55-.67,5.59,5.59,0,0,1-2.34-1.68,7.89,7.89,0,0,1-1.68-3.35,15.12,15.12,0,0,1-.27-5.09,25.68,25.68,0,0,1,1.88-7,48.76,48.76,0,0,1,5-9.31,59.21,59.21,0,0,0,5-8.64,4.08,4.08,0,0,0,.4-2.28,4.92,4.92,0,0,0-.94-2.21,7.77,7.77,0,0,0-3.08-2.21q-1.22,2.8-2.41,5.42t-2.22,4.56c-.67,1.3-1.45,2.7-2.34,4.22q-.54,1.08-1.47.54a1.22,1.22,0,0,1-.54-1.61q1.88-3.48,3.15-6.1t2.68-5.76q1.41-3.15,2.61-6c-.36-1-.67-2-.94-2.95a18.45,18.45,0,0,1-.33-3,9.05,9.05,0,0,1,.6-3.48,5.25,5.25,0,0,1,1.88-2.75,5.11,5.11,0,0,1,2.88-1.07,6.51,6.51,0,0,1,3.08.67,5,5,0,0,1,2.35,2.34,6.32,6.32,0,0,1,.53,2,1.27,1.27,0,0,1-.4,1.21l-1.81,1.81a16.86,16.86,0,0,0-2.08,2.55,10.14,10.14,0,0,0-1.34,2.81,2.13,2.13,0,0,0,.67,2.34,6,6,0,0,0,.81.94,22,22,0,0,0,2.41,2,10.25,10.25,0,0,1,3.42,4.83,12.31,12.31,0,0,1,.47,4.82,15.52,15.52,0,0,1-1.48,5.09q-1.74,3.49-3.62,7.17c-1.25,2.46-2.36,4.8-3.35,7a41.5,41.5,0,0,0-2.14,5.89q-.67,2.55,0,3.75a24.34,24.34,0,0,0,5.16-4.22,59.48,59.48,0,0,0,7.57-10.25c1.07-1.69,2.08-3.37,3-5l2.48-4.36q1.22-2.28,2.28-4.15C168.43,132,168.92,131.79,169.55,132.14Z"/><path class="cls-1" d="M217,96.1a4.74,4.74,0,0,1,.07,2.14,5.79,5.79,0,0,1-1.48,2.81,12.48,12.48,0,0,1-3.95,2.82,27.29,27.29,0,0,1-7.5,2.14l-3.22.27a61,61,0,0,1-8.17,0q-2.28,5.22-4.76,10.39t-5,9.78q-2.47,4.62-4.69,8.51c-1.47,2.59-2.75,4.73-3.82,6.43-.71,1.16-1.38,2.37-2,3.62s-1.29,2.5-2,3.75a17.89,17.89,0,0,0-2.21,7.37,11,11,0,0,0,.6,4.55,24.34,24.34,0,0,0,5.16-4.22,59,59,0,0,0,7.57-10.25c1.08-1.69,2.08-3.35,3-5s1.76-3.05,2.48-4.35,1.47-2.7,2.28-4.22c.35-.72.84-.89,1.47-.54s.89.85.54,1.48c-.81,1.6-1.55,3.06-2.22,4.35s-1.49,2.77-2.47,4.42-2,3.33-3.09,5Q174.24,162,168.07,163.5q-3.48.8-5.23-.27a7.72,7.72,0,0,1-2.68-2.68,10.41,10.41,0,0,1-1.2-4.69c0-.71.06-1.74.2-3.08a17.73,17.73,0,0,1,1.27-4.69A101.83,101.83,0,0,1,165.19,138q3-5.7,6.23-11.59t6.16-11.46q3-5.55,4.83-10c-2.24-.45-4.56-.82-7-1.14a43.84,43.84,0,0,0-7.24-.33,22.52,22.52,0,0,0-4.75.4l-3,.67a.89.89,0,0,1-1-.07,1.45,1.45,0,0,1-.61-.87,1,1,0,0,1,.67-.94,12.72,12.72,0,0,1,2.82-.74c1-.13,1.92-.28,2.81-.46l2.95-.27a59.43,59.43,0,0,1,7,.47q3.89.47,8.31.87,1.88-5,3.14-9.11a29.62,29.62,0,0,0,1.41-7.24,1.44,1.44,0,0,1,.74-1.27,1.47,1.47,0,0,1,1.54-.07,22.23,22.23,0,0,1,2.68,1.81,10.37,10.37,0,0,1,2.48,2.75,9.05,9.05,0,0,1,1.27,3.68,11.07,11.07,0,0,1-.67,4.89c-.27.9-.56,1.77-.87,2.62s-.65,1.67-1,2.47a45,45,0,0,0,5.49-.33,25.85,25.85,0,0,0,5.09-1.14,32.78,32.78,0,0,0,6.17-2.48,35.47,35.47,0,0,0,3.55-2.21c.84-.62,1.45-1.05,1.81-1.27S216.8,95.56,217,96.1Z"/><path class="cls-1" d="M188.83,282.82c.36-.1.59,0,.68.27a.56.56,0,0,1-.27.68,15.84,15.84,0,0,1-4.08,2,19.88,19.88,0,0,1-6.67.81,42.89,42.89,0,0,1-9.86-1.56,70.63,70.63,0,0,1-13.39-5.3q-2.73-1.23-5.71-2.72-2.59-1.23-5.78-2.65c-2.14-1-4.24-1.89-6.33-2.79l-4.69-1.7q-2.79-1-6.32-2-4,8.16-9.12,16.79a124.66,124.66,0,0,1-11.22,15.91,74.07,74.07,0,0,1-12.85,12.31,30.15,30.15,0,0,1-13.87,6,24.35,24.35,0,0,1-4.35-.14,30,30,0,0,1-4-.88,11.6,11.6,0,0,1-3.88-2,13.23,13.23,0,0,1-4.22-5.57,23.46,23.46,0,0,1-1.42-7.75q-.21-4.77,2.51-12a35.68,35.68,0,0,1,8.57-12.86,51.91,51.91,0,0,1,12.92-9.11,62.84,62.84,0,0,1,15.3-5.3,68.54,68.54,0,0,1,15.57-1.56c1.27-2.91,2.47-5.78,3.61-8.64s2.15-5.42,3.06-7.68A37.36,37.36,0,0,1,110.56,253a45.35,45.35,0,0,1-12,2.59,30.42,30.42,0,0,1-9.8-.82q-4.22-1.15-5.84-2.79a26.3,26.3,0,0,1-2.79-3.53,18.72,18.72,0,0,1-2.65-6.33,32.47,32.47,0,0,1-.68-9.38,42.56,42.56,0,0,1,3-12.72h-.14a44.25,44.25,0,0,0-12.85,6.19,39.1,39.1,0,0,0-8.77,8.5,31.18,31.18,0,0,0-4.9,9.73,27.21,27.21,0,0,0-1.09,10,19,19,0,0,0,1.09,5.92,19.65,19.65,0,0,0,2.18,4.28,14.64,14.64,0,0,0,2.58,2.92,21.06,21.06,0,0,0,2.45,1.84,1,1,0,0,1,.54,1.16,1.29,1.29,0,0,1-.81,1,12.28,12.28,0,0,1-5.1.27,14.55,14.55,0,0,1-4.63-1.56,16,16,0,0,1-3.8-2.93,14.12,14.12,0,0,1-2.66-3.81,46.8,46.8,0,0,1-1.76-4.62,20,20,0,0,1-.89-6.73A26.71,26.71,0,0,1,43,243.58a33.78,33.78,0,0,1,6.19-10A40.76,40.76,0,0,1,63,223.11a99,99,0,0,1,18-6.25,57.25,57.25,0,0,1,2.59-5.31c1-1.81,2.12-3.72,3.4-5.71a84,84,0,0,1,13.87-17.21,67.66,67.66,0,0,1,13.6-9.92,46,46,0,0,1,12.17-4.63,49.46,49.46,0,0,1,9.72-1.15,13.61,13.61,0,0,1,6.46,1.29,10.53,10.53,0,0,1,5.65,7.28,12.49,12.49,0,0,1-.21,5,28.49,28.49,0,0,1-1.42,4.35,35.18,35.18,0,0,1-2.45,4.35,31.23,31.23,0,0,1-8.64,8.16,52.8,52.8,0,0,1-10,5,74.53,74.53,0,0,1-9.32,2.78l-6.6,1.5q-2.72.68-6,1.29t-7.82,1.7a174.32,174.32,0,0,0-8.29,17.88,64.86,64.86,0,0,0-3.27,10.68q-.81,4.49,0,6.39a12.25,12.25,0,0,0,7.48,2.25,28,28,0,0,0,8.71-1.63,52.64,52.64,0,0,0,9-4.22q4.56-2.65,8.57-5.51t7.14-5.57q3.12-2.73,4.76-4.36l1.49-1.9c.28-.27.77-.23,1.5.14a7.18,7.18,0,0,1,1.7,1.76,14.05,14.05,0,0,1,1.56,2.86,14.67,14.67,0,0,1,1,3.53,9.12,9.12,0,0,1-.28,3.81q-.67,2.73-2.78,8.5t-5.65,13.26a109.38,109.38,0,0,1,17.55,5.78Q155,273,163,276.36t14.69,5.44Q184.34,283.9,188.83,282.82ZM72,315.59a20.48,20.48,0,0,0,2.72.14,11.67,11.67,0,0,0,4.42-1.16,31.49,31.49,0,0,0,6.25-3.94,49.89,49.89,0,0,0,8-8.37,132.63,132.63,0,0,0,9.65-14.41q5.24-8.85,11.36-22A68.79,68.79,0,0,0,97.23,267a50,50,0,0,0-18.56,8A32.84,32.84,0,0,0,73,280a47,47,0,0,0-4.63,6.25,29,29,0,0,0-3.53,8.71,27.53,27.53,0,0,0-1.09,9.59,15,15,0,0,0,1.84,6.25,10.34,10.34,0,0,0,3.26,3.54A7.7,7.7,0,0,0,72,315.59Zm33.59-116q-1.23,1.63-2.72,3.95c-1,1.54-1.91,3-2.72,4.48q-1.5,2.46-3,5.17,2.58-.54,5.16-1c1.72-.31,3.49-.7,5.31-1.15a65.69,65.69,0,0,0,24.61-10.61,42.89,42.89,0,0,0,7.48-7.07,27.67,27.67,0,0,0,3.68-6.12,21.78,21.78,0,0,0,1.36-4.63,8.74,8.74,0,0,0-.14-4.08c-.73-1.17-2.38-1.72-5-1.63a26.85,26.85,0,0,0-9.39,2.52,57.51,57.51,0,0,0-12,7.34A74.81,74.81,0,0,0,105.6,199.58Z"/><path class="cls-1" d="M176.05,223.52c.72.27.9.77.54,1.49-.82,1.64-1.56,3.11-2.24,4.42s-1.52,2.82-2.52,4.49-2,3.38-3.13,5.1a66.71,66.71,0,0,1-9.93,12.79,17.07,17.07,0,0,1-2.17,1.63,9.78,9.78,0,0,1-2.18,1.15,5,5,0,0,1-2.45.34,11.25,11.25,0,0,1-5.5-2,10.43,10.43,0,0,1-3.27-4,16.13,16.13,0,0,1-1.43-5.37,43.17,43.17,0,0,1-.13-5.92A64.18,64.18,0,0,1,144.77,222a125.71,125.71,0,0,1,5.71-14q3.26-6.8,6.8-12.71a122.76,122.76,0,0,1,7-10.54,49.81,49.81,0,0,1,6.46-7.28,13.2,13.2,0,0,1,5.24-3.19,2.52,2.52,0,0,1,3.19,1.76,18.58,18.58,0,0,1,1.77,7.15,30.06,30.06,0,0,1-.54,7,37.36,37.36,0,0,1-1.84,6.32,41,41,0,0,1-2.38,5.1,116.41,116.41,0,0,1-9.72,14.89,147.63,147.63,0,0,1-12.17,14.22,70.51,70.51,0,0,0-1.7,9,18.48,18.48,0,0,0,.47,8.09,3.35,3.35,0,0,0,1.23,2.25,1.9,1.9,0,0,0,1.63.2,3.79,3.79,0,0,0,1.9-.95,41.12,41.12,0,0,0,4.08-4.49,77.19,77.19,0,0,0,4.9-7.07c1.09-1.72,2.08-3.42,3-5.1s1.72-3.15,2.45-4.42q1.22-2.31,2.31-4.22Q175.09,223,176.05,223.52Zm-14.42-12.78c-.63,1.63-1.32,3.31-2,5q-.94,2.31-2,5l-2,5.1a108.38,108.38,0,0,0,10.47-12.58A125.12,125.12,0,0,0,173.26,202a50.93,50.93,0,0,0,3.94-8.57q1.16-3.53.89-4.76c-.19-.63-.68-.79-1.5-.47a10.83,10.83,0,0,0-3.4,3,57.51,57.51,0,0,0-5.1,7.28A130,130,0,0,0,161.63,210.74Z"/><path class="cls-1" d="M197.67,255.34a3.16,3.16,0,0,1-1.43.21c-.5-.05-1-.12-1.43-.21a11,11,0,0,1-1.49-.41,7,7,0,0,1-3.47-3.39q-1.56-2.73-.75-7.89a46.12,46.12,0,0,1-7,7.48,15.92,15.92,0,0,1-5.92,3.26,3.39,3.39,0,0,1-1.9,0,2.72,2.72,0,0,1-.95-.14,5.2,5.2,0,0,1-3.13-1.76,10.68,10.68,0,0,1-1.91-3.61,18.26,18.26,0,0,1-.54-6.73,31.62,31.62,0,0,1,2.24-8.77,66.64,66.64,0,0,1,5.1-10.27,83.1,83.1,0,0,1,7.14-10,51.62,51.62,0,0,1,8.3-8.1,24.3,24.3,0,0,1,8.5-4.35,9.65,9.65,0,0,1,7.75,1.09,14.76,14.76,0,0,1,4.63,4.49,13.56,13.56,0,0,1,1.9,5.84q.41,3.54-1.9,8.3-1.64,3.41-4.15,8.23t-4.76,9.66A82.46,82.46,0,0,0,199,247q-1.29,3.87-.47,5.51a28.5,28.5,0,0,0,5.1-4.29,66.06,66.06,0,0,0,7.82-10.4q1.62-2.58,3-5.1t2.45-4.42q1.22-2.31,2.31-4.22c.36-.72.86-.9,1.49-.54s.91.77.55,1.49q-1.23,2.46-2.25,4.42t-2.51,4.49q-1.5,2.52-3.13,5.1Q204.19,253.44,197.67,255.34Zm-6.39-18.9a51.36,51.36,0,0,1,4-7.55c1.5-2.31,2.92-4.62,4.28-6.93a53,53,0,0,0,3.61-7.49,36,36,0,0,0,2.11-9.31,7.3,7.3,0,0,0-.14-1,1.26,1.26,0,0,0-.82-1,3.49,3.49,0,0,0-2.58.54,27.12,27.12,0,0,0-3.6,3.88q-2.52,3.06-5.58,7.55T186.25,225q-3.27,5.44-6,11a74.65,74.65,0,0,0-3.53,8,23.92,23.92,0,0,0-1.3,4.76,4.64,4.64,0,0,0,.14,2.38,1.39,1.39,0,0,0,1,.81,10.9,10.9,0,0,0,3.81-2.31,42.13,42.13,0,0,0,4-4q2-2.25,3.74-4.69T191.28,236.44Z"/><path class="cls-1" d="M245.54,230.73a1.26,1.26,0,0,1-.95,1.36q-3.94,1.08-7.28,2.24c-2.22.77-4.24,1.57-6.05,2.38a71.4,71.4,0,0,1,1.7,8.57,37.11,37.11,0,0,1,.07,9.25A32.32,32.32,0,0,1,230.38,265a17.42,17.42,0,0,1-4.76,6.25,13.27,13.27,0,0,1-6,2.72,15.36,15.36,0,0,1-6.46-.27,11.25,11.25,0,0,1-3.94-2.31,11.59,11.59,0,0,1-2.59-3.67,12,12,0,0,1-.68-6.26,22.39,22.39,0,0,1,2.32-7.48,33.47,33.47,0,0,1,4.76-7.2,42.68,42.68,0,0,1,9.11-7.89,74.31,74.31,0,0,0-1.57-10.07q-1.16-5.16-2.24-10.74a32.77,32.77,0,0,1-.75-10.07,18.47,18.47,0,0,1,1.84-6.59,11.11,11.11,0,0,1,3.26-3.88,16.1,16.1,0,0,1,3.81-2,8.09,8.09,0,0,1,3.4-.54,9.92,9.92,0,0,1,2.58.54,9.23,9.23,0,0,1,2.18,1.36,8,8,0,0,1,1.63,3.13,11.24,11.24,0,0,1,.07,4.15,20.27,20.27,0,0,1-2.24,6.19q-2,3.94-4.08,7.14t-3.81,5.64c.72,1.72,1.45,3.52,2.17,5.37s1.45,3.83,2.18,5.92q3-1.23,6.39-2.38t7.35-2.11a.9.9,0,0,1,.81.14A.81.81,0,0,1,245.54,230.73Zm-28.7,30.19a25,25,0,0,0,4.56-9.25,37.73,37.73,0,0,0,1-9.93,36,36,0,0,0-7.34,6.67,24.72,24.72,0,0,0-3.68,6,14,14,0,0,0-1.49,6c-.18,2.17.5,3.4,2,3.67a2.86,2.86,0,0,0,2.17-.41A9.45,9.45,0,0,0,216.84,260.92Zm12.92-56a7.66,7.66,0,0,0-3.67,1.08,6.08,6.08,0,0,0-2.24,2.59,9.77,9.77,0,0,0-.48,5.3,24.59,24.59,0,0,0,.82,3.4c.36,1.18.77,2.45,1.22,3.81q1.64-2.44,3.33-5.57a42.33,42.33,0,0,0,2.93-6.8,4.36,4.36,0,0,0,.2-2.18,2,2,0,0,0-.75-1.09A3,3,0,0,0,229.76,204.89Z"/><path class="cls-1" d="M269.2,230.73a1.26,1.26,0,0,1-.95,1.36q-3.94,1.08-7.27,2.24c-2.23.77-4.24,1.57-6.06,2.38a67.68,67.68,0,0,1,1.7,8.57,37.11,37.11,0,0,1,.07,9.25A32.07,32.07,0,0,1,254,265a17.31,17.31,0,0,1-4.76,6.25,13.28,13.28,0,0,1-6,2.72,15.36,15.36,0,0,1-6.46-.27,11.2,11.2,0,0,1-4-2.31,11.57,11.57,0,0,1-2.58-3.67,11.94,11.94,0,0,1-.68-6.26,22.14,22.14,0,0,1,2.31-7.48,33.85,33.85,0,0,1,4.76-7.2,42.93,42.93,0,0,1,9.11-7.89,74.25,74.25,0,0,0-1.56-10.07q-1.16-5.16-2.25-10.74a32.72,32.72,0,0,1-.74-10.07,18.27,18.27,0,0,1,1.83-6.59,11.13,11.13,0,0,1,3.27-3.88,15.86,15.86,0,0,1,3.8-2,8.09,8.09,0,0,1,3.4-.54,10.09,10.09,0,0,1,2.59.54,9.16,9.16,0,0,1,2.17,1.36A8,8,0,0,1,260,200a11.26,11.26,0,0,1,.06,4.15,19.75,19.75,0,0,1-2.24,6.19q-2,3.94-4.08,7.14t-3.81,5.64c.73,1.72,1.45,3.52,2.18,5.37s1.45,3.83,2.17,5.92q3-1.23,6.4-2.38t7.34-2.11a.92.92,0,0,1,.82.14A.8.8,0,0,1,269.2,230.73Zm-28.69,30.19a25.17,25.17,0,0,0,4.55-9.25,37.73,37.73,0,0,0,1-9.93,36,36,0,0,0-7.34,6.67,24.65,24.65,0,0,0-3.67,6,13.86,13.86,0,0,0-1.5,6c-.18,2.17.5,3.4,2,3.67a2.88,2.88,0,0,0,2.18-.41A9.7,9.7,0,0,0,240.51,260.92Zm12.92-56a7.63,7.63,0,0,0-3.67,1.08,6.1,6.1,0,0,0-2.25,2.59,9.69,9.69,0,0,0-.47,5.3,26,26,0,0,0,.81,3.4q.54,1.77,1.23,3.81,1.62-2.44,3.33-5.57a42.31,42.31,0,0,0,2.92-6.8,4.51,4.51,0,0,0,.21-2.18,2.11,2.11,0,0,0-.75-1.09A3.14,3.14,0,0,0,253.43,204.89Z"/><path class="cls-1" d="M147.91.53a9.2,9.2,0,0,1,.88,1.38,4.24,4.24,0,0,1,.49,1.81,5.55,5.55,0,0,1-.38,2.2,8.8,8.8,0,0,1-1.65,2.64A10.67,10.67,0,0,1,140.59,12a42.73,42.73,0,0,1-8.74.44,95.43,95.43,0,0,0-4.79,12.27Q124.7,32,122.83,40q-1.55,6.16-3.52,11.77t-3.85,9.9q-2.08,5.07-4.29,9.46a40,40,0,0,1-8.8,10.07,31.54,31.54,0,0,1-9.19,5.11,26.45,26.45,0,0,1-8.8,1.49,30.86,30.86,0,0,1-7.53-.94,23.14,23.14,0,0,1-3.8-1.26,26.35,26.35,0,0,1-2.69-1.38,15.44,15.44,0,0,1-2.2-1.43,13.2,13.2,0,0,1-5.34-7.31,23.77,23.77,0,0,1-.66-9.41,41,41,0,0,1,2.48-9.79,48.44,48.44,0,0,1,4.18-8.47,52.13,52.13,0,0,1,7.48-9.51,50.23,50.23,0,0,1,9.29-7.48,32,32,0,0,1,10-4.13,16.49,16.49,0,0,1,9.46.55,5.63,5.63,0,0,1,2.53,3.19,15.88,15.88,0,0,1,.55,5.45A35.32,35.32,0,0,1,106,45.41a55.78,55.78,0,0,1-5,10.73,42.84,42.84,0,0,1-5.39,7.2,18,18,0,0,1-4.9,3.85c-1.5.74-2.62.88-3.35.44-.66-.29-1.34-1.22-2-2.8a8.62,8.62,0,0,1-.27-5.56q.23-.66,1-.33a5.05,5.05,0,0,0,1.21.39,3.67,3.67,0,0,0,2-.28,12.92,12.92,0,0,0,3.52-1.76,27.09,27.09,0,0,0,3.74-3.46,47.75,47.75,0,0,0,4.62-6.11,31,31,0,0,0,3.41-7,19.74,19.74,0,0,0,1-5.39,8.85,8.85,0,0,0-.49-3.58c-.37-.88-.73-1.39-1.1-1.54a10.14,10.14,0,0,0-2.92-.11,14.75,14.75,0,0,0-6,2.2,42.06,42.06,0,0,0-8.47,6.93A77.89,77.89,0,0,0,76.19,53.33a41.2,41.2,0,0,0-4.4,10,31,31,0,0,0-1,4.51,29.13,29.13,0,0,0-.28,4.68,17.41,17.41,0,0,0,.77,4.67,13.41,13.41,0,0,0,2.26,4.29,9.83,9.83,0,0,0,3,2.75,11.45,11.45,0,0,0,3.14,1.21,8.67,8.67,0,0,0,3.41.22,14.3,14.3,0,0,0,9.46-4.51,48.94,48.94,0,0,0,8.14-10.83,118.85,118.85,0,0,0,6.93-14.47q3.19-7.92,5.77-15.45T118,26.55q2-6.33,3.41-9.63a32.21,32.21,0,0,1,3.08-5.39c-1.25-.14-2.38-.31-3.41-.49s-1.87-.35-2.53-.5q-2-.21-4.29-.66T109,9q-3-.5-6.71-.94t-8.69-.77a37.32,37.32,0,0,0-11.44.83A30.87,30.87,0,0,0,73,11.81a25,25,0,0,0-6.6,5.88A21.48,21.48,0,0,0,62.66,25a16.7,16.7,0,0,0-.94,4.79,16.4,16.4,0,0,0,.33,3.85,12.28,12.28,0,0,0,1.05,3,10.82,10.82,0,0,0,1.32,2,.9.9,0,0,1,.11,1.1.88.88,0,0,1-1,.44,9,9,0,0,1-3.91-1.26,12.69,12.69,0,0,1-3-2.53,11.78,11.78,0,0,1-2-3.3,12,12,0,0,1-.82-3.69,37.78,37.78,0,0,1,0-4A16.65,16.65,0,0,1,55.12,20,20.62,20.62,0,0,1,59,14a27.45,27.45,0,0,1,7.65-5.67A29.64,29.64,0,0,1,77.56,4.93a65.44,65.44,0,0,1,12.32-.16q6.44.5,13.31,1.7t14.14,2.31c1.69.22,3.26.39,4.73.5a32.48,32.48,0,0,0,4.29.05,12.45,12.45,0,0,1,4.45-2.91,22.9,22.9,0,0,1,3.58-.94.79.79,0,0,1,.77.44.78.78,0,0,1-.11.88l-.66.88q-.33.45-.66,1a28.84,28.84,0,0,0,5.83-1.54A18.64,18.64,0,0,0,143.62,5a7.66,7.66,0,0,0,2.09-2.36,6.84,6.84,0,0,0,1-2.26c.07-.36.26-.49.55-.38A1.34,1.34,0,0,1,147.91.53Z"/><path class="cls-1" d="M162.54,51.46c.58.3.73.7.44,1.21-.66,1.32-1.27,2.52-1.82,3.58s-1.23,2.27-2,3.63-1.65,2.73-2.53,4.12q-7.38,11.67-12.76,13.2a5.88,5.88,0,0,1-1.32.22,4.63,4.63,0,0,1-2.09-.55,4.56,4.56,0,0,1-1.93-1.37,6.47,6.47,0,0,1-1.37-2.75,12.26,12.26,0,0,1-.22-4.18,20.74,20.74,0,0,1,1.54-5.78,33.13,33.13,0,0,1,2.25-4.67c.84-1.43,1.69-2.84,2.53-4.24s1.67-2.78,2.48-4.18a42,42,0,0,0,2.2-4.4,19.25,19.25,0,0,0,1.54-4.07,7,7,0,0,0,.27-2.8,1.58,1.58,0,0,0-1.37-1.49c-1.1-.07-2.39.54-3.85,1.82a32.15,32.15,0,0,0-4.29,4.62c-1.4,1.8-2.66,3.57-3.8,5.33s-1.92,3-2.36,3.85q-1.11,2-2,3.63c-.59,1.1-1.1,2.06-1.54,2.86q-1.11,2-2.26,4.13t-2.2,4.23a35.18,35.18,0,0,0-1.7,4,13.07,13.07,0,0,0-.77,3.3,1.34,1.34,0,0,1-.66,1,1.17,1.17,0,0,1-1.1.11,7.9,7.9,0,0,1-1.87-1,5.4,5.4,0,0,1-1.6-1.87,6.15,6.15,0,0,1-.6-2.86,9.68,9.68,0,0,1,1.1-4q1.55-3.41,4.23-8.74l5.5-10.89q2.81-5.55,5.23-10.45c1.61-3.26,2.78-5.78,3.52-7.54a78,78,0,0,0,2.91-8.08,28.44,28.44,0,0,0,1.27-6.55,1.18,1.18,0,0,1,.6-1,1.21,1.21,0,0,1,1.27-.06,19.07,19.07,0,0,1,2.2,1.49,8.58,8.58,0,0,1,2,2.25,8.07,8.07,0,0,1,1.1,3.08,7.53,7.53,0,0,1-.6,4c-.88,2.2-2.06,4.84-3.52,7.92s-3,6.27-4.62,9.57c.95-1,1.94-2,3-3A27.31,27.31,0,0,1,146,35.29a12.68,12.68,0,0,1,3.08-1.65,4.93,4.93,0,0,1,2.86-.22c2.34.59,3.85,1.71,4.51,3.36a10.47,10.47,0,0,1,.66,5.22,26.41,26.41,0,0,1-2.09,6.93q-1.22,2.87-3.25,6.77c-1.35,2.6-2.66,5.19-3.9,7.75a65.89,65.89,0,0,0-3,7c-.74,2.09-.88,3.57-.44,4.45a19.87,19.87,0,0,0,4.23-3.46A52.54,52.54,0,0,0,155.06,63c.88-1.39,1.68-2.76,2.42-4.12s1.39-2.55,2-3.58c.66-1.24,1.28-2.38,1.87-3.41C161.62,51.32,162,51.17,162.54,51.46Z"/><path class="cls-1" d="M168.37,56.41c-.22,1-.48,2-.77,3s-.44,1.69-.66,2.64a20.19,20.19,0,0,0-.44,2.53,18.71,18.71,0,0,0,0,5.83,7.74,7.74,0,0,0,1.26,3.25,3.22,3.22,0,0,0,1.76,1.26,2.11,2.11,0,0,0,1.38,0A22.19,22.19,0,0,0,175,71.43,53.15,53.15,0,0,0,181.35,63c.88-1.39,1.68-2.76,2.42-4.12s1.39-2.55,2-3.58c.66-1.24,1.28-2.38,1.87-3.41.29-.58.69-.73,1.21-.44a.76.76,0,0,1,.44,1.21c-.66,1.32-1.27,2.52-1.82,3.58s-1.23,2.27-2,3.63-1.65,2.73-2.53,4.12q-7.38,11.67-12.65,13.2a5.81,5.81,0,0,1-2.75,0,11.91,11.91,0,0,1-2.81-.93,9.32,9.32,0,0,1-3.13-2.48,13.37,13.37,0,0,1-2.7-4.62,17.06,17.06,0,0,1-.88-6.6,23.39,23.39,0,0,1,2-8,33.45,33.45,0,0,1,5.89-8.91,64,64,0,0,1,7.31-7.26,29.57,29.57,0,0,1,5.56-3.74,7.1,7.1,0,0,1,3.85-.88A3.67,3.67,0,0,1,185,35.07a9.08,9.08,0,0,1,1,2.31,10.45,10.45,0,0,1,.44,3.52,12.74,12.74,0,0,1-3.74,8.53,20.9,20.9,0,0,1-5.5,4A36.25,36.25,0,0,1,168.37,56.41ZM180,37.93a27.49,27.49,0,0,0-3.74,3.52,37.56,37.56,0,0,0-3.52,4.84,39.83,39.83,0,0,0-3.52,7.48c.66-.29,1.48-.71,2.47-1.26a16.79,16.79,0,0,0,3-2.15,18.45,18.45,0,0,0,2.81-3.19,15.34,15.34,0,0,0,2.09-4.4q.21-1,.33-2c.07-.58.12-1.11.16-1.59A4.72,4.72,0,0,0,180,37.93Z"/><path class="cls-1" d="M233.61,120.22a10.92,10.92,0,0,1,3.19,5,21.73,21.73,0,0,1,.71,7.26,36.83,36.83,0,0,1-2.69,11.22,43.88,43.88,0,0,1-5.89,11.17,27.94,27.94,0,0,1-5.88,5.88,14.25,14.25,0,0,1-6.49,2.75,4.93,4.93,0,0,1-2.53,0,8.59,8.59,0,0,1-5.39-3.41,12.48,12.48,0,0,1-2.2-5.06,21.77,21.77,0,0,1-.28-7.48,32.57,32.57,0,0,1,2.48-8.85,33.39,33.39,0,0,1,6.16-9.3,80.15,80.15,0,0,1,5.77-5.83,23,23,0,0,1,4.46-3.24,11.13,11.13,0,0,1,3.52-1.27,6.72,6.72,0,0,1,2.75.11A5.3,5.3,0,0,1,233.61,120.22Zm-2.53,23.1a67.52,67.52,0,0,0,2.2-7,41.51,41.51,0,0,0,1.15-6.33,19.92,19.92,0,0,0,0-4.78c-.18-1.29-.56-2.08-1.15-2.37a3.23,3.23,0,0,0-1.76-.16,10.52,10.52,0,0,0-1.76.49,14.44,14.44,0,0,0-1.87,1,21.83,21.83,0,0,0-4.51,4.51,54.67,54.67,0,0,0-4.07,6.27,51.25,51.25,0,0,0-4.07,9.68,36.94,36.94,0,0,0-1.93,8.86,13,13,0,0,0,.5,5.06,3.71,3.71,0,0,0,1.76,2.19,3.2,3.2,0,0,0,1.76.39,7.84,7.84,0,0,0,4.23-1.76,18.56,18.56,0,0,0,3.58-3.9,34.85,34.85,0,0,0,3.08-5.5C229.17,147.88,230.13,145.67,231.08,143.32Z"/><path class="cls-1" d="M269.58,99.32A15.17,15.17,0,0,1,271,105.1a24.65,24.65,0,0,1-.44,5.66,29.71,29.71,0,0,1-1.49,5.12,33.49,33.49,0,0,1-1.92,4.12,91.68,91.68,0,0,1-6.16,9.63q-3.63,5-7.59,9.62h1.65a.88.88,0,0,1,1,1c0,.59-.33.88-1,.88h-2.42a45.58,45.58,0,0,1,.77,7.59,63.69,63.69,0,0,1-.39,8.69,55.58,55.58,0,0,1-1.65,8.58,34.11,34.11,0,0,1-2.91,7.37,15.85,15.85,0,0,1-4.13,5,7.14,7.14,0,0,1-5.33,1.48,4.27,4.27,0,0,1-3.58-2.42,13.48,13.48,0,0,1-1.32-5.61,39.41,39.41,0,0,1,.44-7.53q.61-4.12,1.54-8.36t2-8.14q1.09-3.92,2-6.66H239a.78.78,0,0,1-.88-.88c0-.66.29-1,.88-1h1.76a10.23,10.23,0,0,1,.66-2c.14-.29.25-.55.33-.77a101.83,101.83,0,0,1,4.62-11.33c1.76-3.67,3.59-7.09,5.5-10.29a97.62,97.62,0,0,1,5.66-8.52,39.64,39.64,0,0,1,5.23-5.88A10.68,10.68,0,0,1,267,97.89,2,2,0,0,1,269.58,99.32ZM251.1,158.61a41.45,41.45,0,0,0,.6-9.46,59.24,59.24,0,0,0-.82-7l-2.09,2.09q-1.65,5.06-3.19,10.56t-2.64,10q-1.11,4.51-1.54,7.54c-.3,2-.33,3.06-.11,3.13a2.84,2.84,0,0,0,2.25-.38,8.18,8.18,0,0,0,2.75-2.7A26.45,26.45,0,0,0,249,167,40.17,40.17,0,0,0,251.1,158.61Zm17.6-49.06c-.15-.51-.55-.64-1.21-.38a8.64,8.64,0,0,0-2.75,2.42,45.35,45.35,0,0,0-4.13,5.88,106.39,106.39,0,0,0-5.22,9.9c-.81,1.83-1.52,3.56-2.15,5.17s-1.23,3.15-1.81,4.62a1.89,1.89,0,0,1,.16.55,1.88,1.88,0,0,0,.17.55,92.82,92.82,0,0,0,7.92-9.84,98.18,98.18,0,0,0,5.39-8.64,40.64,40.64,0,0,0,3-6.6A8.73,8.73,0,0,0,268.7,109.55Z"/></g></g></svg>