<svg xmlns="http://www.w3.org/2000/svg" viewBox="0 0 496.99 138.35"><defs><style>.cls-1{fill:#f39200;}.cls-2{fill:#fff;}</style></defs><title>GoMAStrap-White</title><g id="Layer_2" data-name="Layer 2"><g id="Layer_1-2" data-name="Layer 1"><path class="cls-1" d="M32.73.73C32-.6,30.07.29,30.07.29,30.13.12,28.33,6,26.2,12.75a32.67,32.67,0,0,1,5.8.87C32.38,6.75,32.73.73,32.73.73Z"/><path class="cls-1" d="M33.47,39.12c-1.92-1.62-2.22-3.4-2.36-5.76,0-.36,0-1.38.05-2.84-2.34-.1-8.21-.43-10.41-1.31-.28.76-.53,1.37-.72,1.79-.91,2-1.77,3.4-4.28,4A66.38,66.38,0,0,1,9,36.31l-.44,2.37s12.1,5.61,14.47,6,13.73-.15,14.32-1a4.25,4.25,0,0,0,.59-2.07A42,42,0,0,1,33.47,39.12Z"/><path class="cls-2" d="M32,13.62a32.67,32.67,0,0,0-5.8-.87c-1.93,6.12-4.13,12.92-5.45,16.46,2.2.88,8.07,1.21,10.41,1.31C31.3,26.69,31.66,19.81,32,13.62Z"/><path class="cls-2" d="M10.51,63.16A7.72,7.72,0,0,0,12.2,63a8.39,8.39,0,0,0,1.39-.46V59.35h-2A.89.89,0,0,1,11,59.1a.79.79,0,0,1-.25-.61V55.81h7.07v8.85a10.37,10.37,0,0,1-1.59,1,9.36,9.36,0,0,1-1.76.7,12.3,12.3,0,0,1-2,.4,18.19,18.19,0,0,1-2.28.13A9.83,9.83,0,0,1,2.9,63.85a10.49,10.49,0,0,1-2.13-3.4A11.66,11.66,0,0,1,0,56.18a12.23,12.23,0,0,1,.74-4.31,9.72,9.72,0,0,1,2.11-3.38,9.55,9.55,0,0,1,3.31-2.22,11.42,11.42,0,0,1,4.35-.79,12.31,12.31,0,0,1,2.33.21,12.18,12.18,0,0,1,2,.59,8.75,8.75,0,0,1,1.69.9,9.53,9.53,0,0,1,1.37,1.12l-1.34,2.14a1.63,1.63,0,0,1-.46.48,1.09,1.09,0,0,1-.58.17,1.6,1.6,0,0,1-.85-.29,10.24,10.24,0,0,0-1-.59,5.31,5.31,0,0,0-1-.41,5.11,5.11,0,0,0-1.06-.23,9.43,9.43,0,0,0-1.26-.08A5.48,5.48,0,0,0,8,50a5.25,5.25,0,0,0-1.77,1.36,6.35,6.35,0,0,0-1.12,2.11,8.76,8.76,0,0,0-.4,2.74,9.32,9.32,0,0,0,.44,3,6.29,6.29,0,0,0,1.21,2.18A5,5,0,0,0,8.2,62.69,5.49,5.49,0,0,0,10.51,63.16Z"/><path class="cls-2" d="M28.52,51.52a7.93,7.93,0,0,1,2.94.53,6.5,6.5,0,0,1,2.27,1.53A6.88,6.88,0,0,1,35.2,56a9.12,9.12,0,0,1,.53,3.19,9.23,9.23,0,0,1-.53,3.21,6.88,6.88,0,0,1-1.47,2.43,6.39,6.39,0,0,1-2.27,1.54,8.3,8.3,0,0,1-5.89,0,6.47,6.47,0,0,1-2.29-1.54,6.64,6.64,0,0,1-1.49-2.43,9.23,9.23,0,0,1-.53-3.21A9.12,9.12,0,0,1,21.79,56a6.58,6.58,0,0,1,3.78-3.94A8,8,0,0,1,28.52,51.52Zm0,12.07a2.36,2.36,0,0,0,2.15-1.08,6.29,6.29,0,0,0,.69-3.3,6.24,6.24,0,0,0-.69-3.3,2.36,2.36,0,0,0-2.15-1.08,2.41,2.41,0,0,0-2.19,1.08,6.14,6.14,0,0,0-.7,3.3,6.18,6.18,0,0,0,.7,3.3A2.41,2.41,0,0,0,28.52,63.59Z"/><path class="cls-2" d="M50.38,58.23c.17.39.33.79.48,1.21.16-.43.32-.84.49-1.24s.35-.78.54-1.16L57,46.44a1.61,1.61,0,0,1,.28-.42.84.84,0,0,1,.32-.22,1,1,0,0,1,.4-.08h4v21H58V54.62c0-.59,0-1.22.08-1.9L52.79,63.49a1.88,1.88,0,0,1-.67.77,1.74,1.74,0,0,1-.94.25h-.63a1.68,1.68,0,0,1-1.61-1L43.64,52.7c0,.34.07.67.09,1s0,.64,0,.92V66.67H39.69v-21h4a1,1,0,0,1,.4.08.87.87,0,0,1,.33.22,1.91,1.91,0,0,1,.27.42l5.12,10.65C50,57.45,50.21,57.83,50.38,58.23Z"/><path class="cls-2" d="M85.46,66.67H81.88a1.57,1.57,0,0,1-1-.29,1.53,1.53,0,0,1-.54-.76L79.18,62H71.62l-1.17,3.65a1.6,1.6,0,0,1-.54.73,1.43,1.43,0,0,1-1,.32H65.34l7.7-21h4.72Zm-12.78-8h5.44l-1.83-5.74-.42-1.29c-.16-.49-.32-1-.47-1.6q-.23.87-.45,1.62c-.16.5-.3.93-.44,1.3Z"/><path class="cls-2" d="M97.11,44.62H99v27H97.11Z"/><path class="cls-2" d="M118.52,64.64a13.11,13.11,0,0,0,1.46-.07,11.09,11.09,0,0,0,1.25-.24,8.35,8.35,0,0,0,1.1-.38c.35-.15.69-.32,1-.51V58.89h-3a.57.57,0,0,1-.42-.16.53.53,0,0,1-.15-.39V56.76h6v7.91a10.13,10.13,0,0,1-3.24,1.68,11.26,11.26,0,0,1-1.94.42,17.76,17.76,0,0,1-2.26.13,9.56,9.56,0,0,1-3.9-.77A9.07,9.07,0,0,1,111.37,64a10,10,0,0,1-2-3.34,13.37,13.37,0,0,1,0-8.57,9.46,9.46,0,0,1,2-3.33,8.92,8.92,0,0,1,3.15-2.15,10.72,10.72,0,0,1,4.14-.77,12.26,12.26,0,0,1,2.16.18,10.22,10.22,0,0,1,1.85.52,8.63,8.63,0,0,1,1.57.82,8.94,8.94,0,0,1,1.35,1.09l-.75,1.26a.68.68,0,0,1-.6.39.88.88,0,0,1-.47-.16c-.23-.13-.49-.29-.77-.48a5.74,5.74,0,0,0-1-.56,7.32,7.32,0,0,0-1.43-.45,8.68,8.68,0,0,0-2-.19,7.55,7.55,0,0,0-3,.57,6.32,6.32,0,0,0-2.28,1.63A7,7,0,0,0,111.87,53a10.42,10.42,0,0,0-.51,3.37,10.71,10.71,0,0,0,.53,3.49,7.43,7.43,0,0,0,1.48,2.6,6.27,6.27,0,0,0,2.26,1.62A7.16,7.16,0,0,0,118.52,64.64Z"/><path class="cls-2" d="M132.16,45.48V66.67h-2.43V45.48Z"/><path class="cls-2" d="M146.6,66.67h-1.08a1.16,1.16,0,0,1-.57-.11.62.62,0,0,1-.29-.49l-.27-1.35c-.37.34-.72.65-1.07.92a5.76,5.76,0,0,1-1.09.7,6.05,6.05,0,0,1-1.22.42,6.4,6.4,0,0,1-1.44.14,4.92,4.92,0,0,1-1.51-.23A3.33,3.33,0,0,1,136,64.74a4.48,4.48,0,0,1-.3-1.72,3.38,3.38,0,0,1,.45-1.67,4,4,0,0,1,1.45-1.42,9.37,9.37,0,0,1,2.63-1,17.17,17.17,0,0,1,4-.4V57.37a4.09,4.09,0,0,0-.69-2.58,2.43,2.43,0,0,0-2-.88,4,4,0,0,0-1.49.24,5.51,5.51,0,0,0-1.06.53c-.29.2-.55.37-.76.53a1.06,1.06,0,0,1-.63.24.69.69,0,0,1-.43-.14.94.94,0,0,1-.3-.33l-.43-.82a7.83,7.83,0,0,1,2.47-1.75,7.33,7.33,0,0,1,2.93-.57,5,5,0,0,1,2.06.4,4.27,4.27,0,0,1,1.52,1.12,5,5,0,0,1,.92,1.74,7.65,7.65,0,0,1,.32,2.25Zm-6.31-1.57a4.85,4.85,0,0,0,1.18-.13,4.33,4.33,0,0,0,1-.39,5.71,5.71,0,0,0,.9-.61,8.08,8.08,0,0,0,.84-.82v-3a15.33,15.33,0,0,0-2.85.23,7.23,7.23,0,0,0-1.91.58,2.58,2.58,0,0,0-1.07.86,1.84,1.84,0,0,0-.34,1.1,2.5,2.5,0,0,0,.18,1,1.94,1.94,0,0,0,.48.69,1.76,1.76,0,0,0,.71.39A3.07,3.07,0,0,0,140.29,65.1Z"/><path class="cls-2" d="M158.2,54.5a.55.55,0,0,1-.51.32,1,1,0,0,1-.46-.16c-.17-.11-.39-.22-.64-.35a5.47,5.47,0,0,0-.89-.36,4.11,4.11,0,0,0-1.23-.17,3.39,3.39,0,0,0-1.1.17,2.59,2.59,0,0,0-.84.45,1.93,1.93,0,0,0-.54.67,1.9,1.9,0,0,0-.18.83,1.39,1.39,0,0,0,.31.93,2.55,2.55,0,0,0,.81.65,7.23,7.23,0,0,0,1.15.48l1.31.45c.45.16.89.33,1.32.52a4.65,4.65,0,0,1,1.15.72A3.22,3.22,0,0,1,159,62.21a5,5,0,0,1-.35,1.87,4,4,0,0,1-1,1.48,4.73,4.73,0,0,1-1.63,1,6.46,6.46,0,0,1-2.24.36,6.65,6.65,0,0,1-2.62-.49,6.49,6.49,0,0,1-2-1.28l.57-1a.74.74,0,0,1,.26-.29.67.67,0,0,1,.39-.1.83.83,0,0,1,.52.2c.18.13.4.28.66.44a4.43,4.43,0,0,0,1,.45,4.15,4.15,0,0,0,1.38.2,3.59,3.59,0,0,0,1.24-.19,2.6,2.6,0,0,0,.89-.53,2.09,2.09,0,0,0,.53-.76,2.55,2.55,0,0,0,.17-.92,1.61,1.61,0,0,0-.31-1,2.72,2.72,0,0,0-.81-.68,7,7,0,0,0-1.16-.49l-1.32-.44a12.47,12.47,0,0,1-1.32-.52,4.59,4.59,0,0,1-1.16-.74,3.61,3.61,0,0,1-.81-1.1,3.82,3.82,0,0,1-.31-1.59,4.07,4.07,0,0,1,.33-1.61,4,4,0,0,1,1-1.35,4.63,4.63,0,0,1,1.54-.93,5.87,5.87,0,0,1,2.09-.34,6.37,6.37,0,0,1,2.45.45,5.63,5.63,0,0,1,1.87,1.25Z"/><path class="cls-2" d="M166.78,51.85a6.58,6.58,0,0,1,1.69.21,5.17,5.17,0,0,1,1.42.61h3.76v.95c0,.32-.2.52-.58.61l-1.57.23a4.61,4.61,0,0,1,.47,2.08,4.7,4.7,0,0,1-.39,1.94A4.36,4.36,0,0,1,170.5,60a4.84,4.84,0,0,1-1.64,1,6.26,6.26,0,0,1-2.08.33A6.42,6.42,0,0,1,165,61a2.53,2.53,0,0,0-.66.64,1.25,1.25,0,0,0-.23.67.93.93,0,0,0,.4.81,2.59,2.59,0,0,0,1,.4,8.32,8.32,0,0,0,1.49.12h1.7a8.75,8.75,0,0,1,1.7.16,5,5,0,0,1,1.49.52,2.9,2.9,0,0,1,1.05,1,3.14,3.14,0,0,1,.39,1.66,4.11,4.11,0,0,1-.44,1.83,4.91,4.91,0,0,1-1.28,1.58,6.46,6.46,0,0,1-2,1.11,8.22,8.22,0,0,1-2.72.42,10,10,0,0,1-2.65-.32,6.13,6.13,0,0,1-1.89-.85,3.73,3.73,0,0,1-1.13-1.23,3.08,3.08,0,0,1-.37-1.47,2.66,2.66,0,0,1,.65-1.83,4.24,4.24,0,0,1,1.78-1.2,2.49,2.49,0,0,1-.94-.77,2.33,2.33,0,0,1-.24-1.94,2.82,2.82,0,0,1,.34-.67,3.62,3.62,0,0,1,1.31-1.16,4.39,4.39,0,0,1-2.18-4,4.65,4.65,0,0,1,.39-1.93A4.23,4.23,0,0,1,163,53.13a4.93,4.93,0,0,1,1.66-1A6.48,6.48,0,0,1,166.78,51.85Zm4.31,15.56a1.32,1.32,0,0,0-.28-.89A1.76,1.76,0,0,0,170,66a4.57,4.57,0,0,0-1.13-.27,9.77,9.77,0,0,0-1.35-.09H166.1a5.06,5.06,0,0,1-1.41-.2,4,4,0,0,0-1.26,1,2,2,0,0,0-.48,1.34,1.83,1.83,0,0,0,.24.92,2,2,0,0,0,.73.73,3.9,3.9,0,0,0,1.23.49,7.54,7.54,0,0,0,1.75.18,7.19,7.19,0,0,0,1.76-.19,4,4,0,0,0,1.32-.54,2.46,2.46,0,0,0,.83-.84A2.06,2.06,0,0,0,171.09,67.41Zm-4.31-7.86a3.47,3.47,0,0,0,1.3-.22,2.49,2.49,0,0,0,1.53-1.53,3.69,3.69,0,0,0,.19-1.18,2.91,2.91,0,0,0-.77-2.13,3,3,0,0,0-2.25-.8,3,3,0,0,0-2.23.8,2.91,2.91,0,0,0-.77,2.13,3.21,3.21,0,0,0,.2,1.18,2.48,2.48,0,0,0,.58.93,2.45,2.45,0,0,0,.94.6A3.4,3.4,0,0,0,166.78,59.55Z"/><path class="cls-2" d="M181.67,51.87a6.73,6.73,0,0,1,2.74.53,5.77,5.77,0,0,1,2.07,1.51,6.64,6.64,0,0,1,1.31,2.37,10.71,10.71,0,0,1,0,6.21,6.77,6.77,0,0,1-1.31,2.36,5.75,5.75,0,0,1-2.07,1.5,7.48,7.48,0,0,1-5.48,0,5.87,5.87,0,0,1-2.08-1.5,7,7,0,0,1-1.32-2.36,10.49,10.49,0,0,1,0-6.21,6.81,6.81,0,0,1,1.32-2.37,5.9,5.9,0,0,1,2.08-1.51A6.73,6.73,0,0,1,181.67,51.87Zm0,13a3.5,3.5,0,0,0,3.06-1.44,7,7,0,0,0,1-4,7.08,7.08,0,0,0-1-4.06,3.51,3.51,0,0,0-3.06-1.45,4,4,0,0,0-1.8.38,3.48,3.48,0,0,0-1.28,1.07,5,5,0,0,0-.76,1.74,10.89,10.89,0,0,0,0,4.64,4.94,4.94,0,0,0,.76,1.72,3.48,3.48,0,0,0,1.28,1.07A4,4,0,0,0,181.67,64.87Z"/><path class="cls-2" d="M189.45,52.1h1.91a.72.72,0,0,1,.49.16.79.79,0,0,1,.26.37L194.76,62c.07.35.14.68.2,1s.12.65.17,1c.07-.32.15-.65.24-1l.29-1,2.92-9.44a.72.72,0,0,1,.24-.36.65.65,0,0,1,.43-.14h1.05a.73.73,0,0,1,.45.14.72.72,0,0,1,.24.36L203.85,62c.1.34.19.67.26,1s.15.65.23,1a9.44,9.44,0,0,1,.18-1c.07-.35.15-.67.23-1l2.7-9.38a.71.71,0,0,1,.26-.38.72.72,0,0,1,.45-.15H210l-4.48,14.57h-1.92c-.24,0-.4-.16-.49-.49L200,56.3c-.07-.22-.13-.44-.18-.67s-.09-.45-.14-.67c0,.22-.09.45-.13.68s-.11.45-.18.67l-3.1,9.87c-.1.33-.28.49-.56.49h-1.83Z"/><path class="cls-2" d="M213.86,45a5.64,5.64,0,0,1,.58,1.39,5.92,5.92,0,0,1,.17,1.38,5.44,5.44,0,0,1-.6,2.49,7.73,7.73,0,0,1-1.69,2.18l-.75-.49a.33.33,0,0,1-.14-.15.39.39,0,0,1,0-.18.48.48,0,0,1,.14-.34,4.55,4.55,0,0,0,.42-.6,4.92,4.92,0,0,0,.37-.68,3.73,3.73,0,0,0,.36-1.56,4.09,4.09,0,0,0-.13-.95,4.49,4.49,0,0,0-.45-1,.65.65,0,0,1-.09-.32.51.51,0,0,1,.37-.5Z"/><path class="cls-2" d="M225.86,54.5a.55.55,0,0,1-.51.32,1,1,0,0,1-.46-.16c-.17-.11-.38-.22-.63-.35a5.61,5.61,0,0,0-.9-.36,4,4,0,0,0-1.23-.17A3.43,3.43,0,0,0,221,54a2.59,2.59,0,0,0-.84.45,1.9,1.9,0,0,0-.53.67,1.78,1.78,0,0,0-.19.83,1.39,1.39,0,0,0,.31.93,2.55,2.55,0,0,0,.81.65,7.23,7.23,0,0,0,1.15.48l1.31.45c.45.16.89.33,1.32.52a4.65,4.65,0,0,1,1.15.72,3.22,3.22,0,0,1,1.12,2.56,5.18,5.18,0,0,1-.34,1.87,4.2,4.2,0,0,1-1,1.48,4.87,4.87,0,0,1-1.64,1,6.42,6.42,0,0,1-2.24.36,6.68,6.68,0,0,1-2.62-.49,6.49,6.49,0,0,1-2-1.28l.57-1a.74.74,0,0,1,.26-.29.68.68,0,0,1,.4-.1.83.83,0,0,1,.51.2c.19.13.41.28.67.44a4.33,4.33,0,0,0,.94.45,4.19,4.19,0,0,0,1.38.2,3.55,3.55,0,0,0,1.24-.19,2.51,2.51,0,0,0,.89-.53,2.09,2.09,0,0,0,.53-.76,2.55,2.55,0,0,0,.17-.92,1.55,1.55,0,0,0-.31-1,2.49,2.49,0,0,0-.81-.68,7.23,7.23,0,0,0-1.15-.49c-.44-.14-.88-.28-1.33-.44a12.47,12.47,0,0,1-1.32-.52,4.78,4.78,0,0,1-1.16-.74,3.61,3.61,0,0,1-.81-1.1,3.82,3.82,0,0,1-.3-1.59,4.06,4.06,0,0,1,.32-1.61,4,4,0,0,1,1-1.35,4.63,4.63,0,0,1,1.54-.93,5.91,5.91,0,0,1,2.09-.34,6.33,6.33,0,0,1,2.45.45,5.63,5.63,0,0,1,1.87,1.25Z"/><path class="cls-2" d="M244.16,64.64a12.92,12.92,0,0,0,1.45-.07,11.09,11.09,0,0,0,1.25-.24A9,9,0,0,0,248,64c.34-.15.69-.32,1-.51V58.89h-3a.53.53,0,0,1-.41-.16.5.5,0,0,1-.16-.39V56.76h6v7.91a10.51,10.51,0,0,1-1.54,1,10.27,10.27,0,0,1-1.7.7,11.59,11.59,0,0,1-1.95.42,17.49,17.49,0,0,1-2.25.13,9.56,9.56,0,0,1-3.9-.77A8.88,8.88,0,0,1,237,64a9.88,9.88,0,0,1-2-3.34,12.19,12.19,0,0,1-.72-4.27,12.51,12.51,0,0,1,.71-4.3,9.29,9.29,0,0,1,2-3.33,8.92,8.92,0,0,1,3.15-2.15,10.8,10.8,0,0,1,4.15-.77,12.06,12.06,0,0,1,2.15.18,10,10,0,0,1,1.85.52,8.73,8.73,0,0,1,1.58.82,10.06,10.06,0,0,1,1.35,1.09l-.75,1.26a.7.7,0,0,1-.6.39.88.88,0,0,1-.48-.16c-.23-.13-.48-.29-.76-.48a6.53,6.53,0,0,0-1-.56,7.65,7.65,0,0,0-1.44-.45,8.62,8.62,0,0,0-2-.19,7.5,7.5,0,0,0-3,.57A6.15,6.15,0,0,0,239,50.44,7.19,7.19,0,0,0,237.5,53a10.42,10.42,0,0,0-.51,3.37,10.71,10.71,0,0,0,.53,3.49,7.43,7.43,0,0,0,1.48,2.6,6.31,6.31,0,0,0,2.27,1.62A7.13,7.13,0,0,0,244.16,64.64Z"/><path class="cls-2" d="M265.25,66.67h-1.08a1.23,1.23,0,0,1-.58-.11.64.64,0,0,1-.28-.49L263,64.72c-.36.34-.71.65-1.06.92a5.42,5.42,0,0,1-2.31,1.12,6.52,6.52,0,0,1-1.44.14,4.92,4.92,0,0,1-1.51-.23,3.32,3.32,0,0,1-1.22-.72,3.43,3.43,0,0,1-.83-1.21,4.48,4.48,0,0,1-.31-1.72,3.38,3.38,0,0,1,.45-1.67,4.07,4.07,0,0,1,1.46-1.42,9.42,9.42,0,0,1,2.62-1,17.32,17.32,0,0,1,4-.4V57.37a4.09,4.09,0,0,0-.69-2.58,2.43,2.43,0,0,0-2-.88,4.14,4.14,0,0,0-1.5.24,5.71,5.71,0,0,0-1.05.53c-.29.2-.55.37-.76.53a1.09,1.09,0,0,1-.64.24.74.74,0,0,1-.43-.14,1,1,0,0,1-.29-.33l-.44-.82a8.06,8.06,0,0,1,2.47-1.75,7.38,7.38,0,0,1,2.94-.57,5,5,0,0,1,2.06.4A4.23,4.23,0,0,1,264,53.36a4.84,4.84,0,0,1,.93,1.74,7.65,7.65,0,0,1,.32,2.25Zm-6.31-1.57a4.71,4.71,0,0,0,1.17-.13,4.4,4.4,0,0,0,1-.39A5.71,5.71,0,0,0,262,64a10.7,10.7,0,0,0,.84-.82v-3a15.52,15.52,0,0,0-2.86.23,7.35,7.35,0,0,0-1.91.58,2.72,2.72,0,0,0-1.07.86,1.9,1.9,0,0,0-.33,1.1,2.5,2.5,0,0,0,.18,1,1.8,1.8,0,0,0,.47.69,1.83,1.83,0,0,0,.71.39A3.19,3.19,0,0,0,258.94,65.1Z"/><path class="cls-2" d="M271.63,45.48V66.67H269.2V45.48Z"/><path class="cls-2" d="M278.62,45.48V66.67h-2.43V45.48Z"/><path class="cls-2" d="M288.38,51.87a5.77,5.77,0,0,1,2.29.44,5.1,5.1,0,0,1,1.81,1.26,5.91,5.91,0,0,1,1.2,2,8.43,8.43,0,0,1,.43,2.77,1.75,1.75,0,0,1-.12.8.5.5,0,0,1-.47.2h-9.2a8.55,8.55,0,0,0,.36,2.41,5.08,5.08,0,0,0,.9,1.7,3.54,3.54,0,0,0,1.36,1,4.42,4.42,0,0,0,1.78.34,4.88,4.88,0,0,0,1.57-.22,7.83,7.83,0,0,0,1.14-.48,9.14,9.14,0,0,0,.8-.49,1,1,0,0,1,.55-.22.54.54,0,0,1,.47.24l.68.94a4.69,4.69,0,0,1-1.08,1,6.57,6.57,0,0,1-1.34.7,8.32,8.32,0,0,1-1.48.41,8.75,8.75,0,0,1-1.52.13,6.75,6.75,0,0,1-2.64-.51,5.94,5.94,0,0,1-2.09-1.49,7.12,7.12,0,0,1-1.37-2.44,10.35,10.35,0,0,1-.49-3.34,9.05,9.05,0,0,1,.44-2.85A6.9,6.9,0,0,1,283.64,54a5.92,5.92,0,0,1,2-1.53A6.4,6.4,0,0,1,288.38,51.87Zm.05,1.88a3.64,3.64,0,0,0-2.77,1.07,5.2,5.2,0,0,0-1.25,3h7.51a5.33,5.33,0,0,0-.23-1.64,3.65,3.65,0,0,0-.68-1.28,3,3,0,0,0-1.1-.83A3.46,3.46,0,0,0,288.43,53.75Z"/><path class="cls-2" d="M297.21,66.67V52.1h1.39a.71.71,0,0,1,.54.16,1,1,0,0,1,.21.54l.16,2.28a6.65,6.65,0,0,1,1.76-2.39,4,4,0,0,1,3.48-.72,3.54,3.54,0,0,1,.86.39l-.31,1.91a.42.42,0,0,1-.42.36,2.07,2.07,0,0,1-.59-.14,3.62,3.62,0,0,0-1.11-.13,3.07,3.07,0,0,0-2.12.77,5.94,5.94,0,0,0-1.43,2.26v9.28Z"/><path class="cls-2" d="M312.26,71a1.43,1.43,0,0,1-.31.46.83.83,0,0,1-.57.17h-1.8l2.53-5.79L306.4,52.1h2.11a.71.71,0,0,1,.49.16,1.14,1.14,0,0,1,.26.37l3.7,9.18q.12.31.21.63c.06.21.11.43.15.65.07-.22.13-.44.19-.65s.14-.42.22-.64l3.59-9.17a.88.88,0,0,1,.28-.38.7.7,0,0,1,.43-.15H320Z"/><path class="cls-2" d="M333,51.87a6.73,6.73,0,0,1,2.74.53,5.69,5.69,0,0,1,2.07,1.51,6.64,6.64,0,0,1,1.31,2.37,10.71,10.71,0,0,1,0,6.21,6.77,6.77,0,0,1-1.31,2.36,5.66,5.66,0,0,1-2.07,1.5,6.9,6.9,0,0,1-2.74.52,6.82,6.82,0,0,1-2.73-.52,5.7,5.7,0,0,1-2.08-1.5,6.8,6.8,0,0,1-1.33-2.36,10.71,10.71,0,0,1,0-6.21,6.67,6.67,0,0,1,1.33-2.37,5.72,5.72,0,0,1,2.08-1.51A6.65,6.65,0,0,1,333,51.87Zm0,13a3.48,3.48,0,0,0,3.06-1.44,7,7,0,0,0,1-4,7.08,7.08,0,0,0-1-4.06A3.49,3.49,0,0,0,333,53.88a4,4,0,0,0-1.8.38A3.45,3.45,0,0,0,330,55.33a4.87,4.87,0,0,0-.77,1.74,10.89,10.89,0,0,0,0,4.64,4.77,4.77,0,0,0,.77,1.72,3.45,3.45,0,0,0,1.27,1.07A4,4,0,0,0,333,64.87Z"/><path class="cls-2" d="M343.17,66.67V54.28l-1.53-.18a1.09,1.09,0,0,1-.47-.23.52.52,0,0,1-.18-.43v-1h2.18V51a6.91,6.91,0,0,1,.33-2.22,4.59,4.59,0,0,1,1-1.64,4.06,4.06,0,0,1,1.49-1,5.36,5.36,0,0,1,2-.35,5,5,0,0,1,1.72.29l-.06,1.28c0,.19-.08.31-.23.35a3.09,3.09,0,0,1-.61,0h-.43a3.49,3.49,0,0,0-1.14.18,2.11,2.11,0,0,0-.88.56,2.63,2.63,0,0,0-.56,1,5.35,5.35,0,0,0-.2,1.57v1.34h4v1.85h-3.92V66.67Z"/><path class="cls-2" d="M367.43,60c.09.25.18.51.28.77.09-.27.18-.53.28-.77s.22-.5.34-.74L375,46.53c.12-.22.24-.36.37-.4a1.56,1.56,0,0,1,.55-.08h1.95V66.67H375.5V51.52c0-.2,0-.42,0-.65s0-.46,0-.7l-6.7,12.89a1,1,0,0,1-1,.65h-.39a1.06,1.06,0,0,1-.95-.65l-6.85-12.93c0,.25.05.49.06.73s0,.46,0,.66V66.67h-2.32V46.05h1.95a1.56,1.56,0,0,1,.55.08.81.81,0,0,1,.37.4l6.75,12.69A5.43,5.43,0,0,1,367.43,60Z"/><path class="cls-2" d="M387.79,51.87a6.7,6.7,0,0,1,2.74.53,5.72,5.72,0,0,1,2.08,1.51,7,7,0,0,1,1.31,2.37,10.94,10.94,0,0,1,0,6.21,7.1,7.1,0,0,1-1.31,2.36,5.7,5.7,0,0,1-2.08,1.5,7.45,7.45,0,0,1-5.47,0,5.7,5.7,0,0,1-2.08-1.5,6.8,6.8,0,0,1-1.33-2.36,10.71,10.71,0,0,1,0-6.21A6.67,6.67,0,0,1,383,53.91a5.72,5.72,0,0,1,2.08-1.51A6.68,6.68,0,0,1,387.79,51.87Zm0,13a3.48,3.48,0,0,0,3.06-1.44,6.94,6.94,0,0,0,1-4,7,7,0,0,0-1-4.06,3.49,3.49,0,0,0-3.06-1.45,4,4,0,0,0-1.8.38,3.45,3.45,0,0,0-1.27,1.07,5.05,5.05,0,0,0-.77,1.74,10.89,10.89,0,0,0,0,4.64,5,5,0,0,0,.77,1.72A3.45,3.45,0,0,0,386,64.5,4,4,0,0,0,387.79,64.87Z"/><path class="cls-2" d="M407.11,66.67a.62.62,0,0,1-.66-.53l-.22-1.77a7.36,7.36,0,0,1-2,1.82,5,5,0,0,1-2.62.68,4.75,4.75,0,0,1-2.15-.48A4.45,4.45,0,0,1,397.79,65a6.93,6.93,0,0,1-1.06-2.34,12.87,12.87,0,0,1-.36-3.2,10.62,10.62,0,0,1,.4-3A7.44,7.44,0,0,1,398,54a5.45,5.45,0,0,1,1.87-1.61,5.31,5.31,0,0,1,2.51-.58,4.8,4.8,0,0,1,2.17.45,5.15,5.15,0,0,1,1.61,1.28V45.48h2.43V66.67ZM402.4,64.8a3.8,3.8,0,0,0,2.08-.57,6.33,6.33,0,0,0,1.64-1.63V55.55a3.85,3.85,0,0,0-1.46-1.33,4.13,4.13,0,0,0-1.77-.38,3.45,3.45,0,0,0-3,1.45,7.09,7.09,0,0,0-1,4.15,10.66,10.66,0,0,0,.23,2.43,4.67,4.67,0,0,0,.68,1.67,2.68,2.68,0,0,0,1.11,1A3.52,3.52,0,0,0,402.4,64.8Z"/><path class="cls-2" d="M418.1,51.87a5.79,5.79,0,0,1,2.3.44,5.1,5.1,0,0,1,1.81,1.26,5.91,5.91,0,0,1,1.2,2,8.43,8.43,0,0,1,.43,2.77,1.59,1.59,0,0,1-.13.8.48.48,0,0,1-.46.2h-9.2a8.55,8.55,0,0,0,.36,2.41,4.75,4.75,0,0,0,.9,1.7,3.47,3.47,0,0,0,1.36,1,4.42,4.42,0,0,0,1.78.34,4.88,4.88,0,0,0,1.57-.22,7.83,7.83,0,0,0,1.14-.48,9.14,9.14,0,0,0,.8-.49,1,1,0,0,1,.55-.22.54.54,0,0,1,.47.24l.68.94a4.69,4.69,0,0,1-1.08,1,6.84,6.84,0,0,1-1.34.7,8.32,8.32,0,0,1-1.48.41,8.75,8.75,0,0,1-1.52.13,6.75,6.75,0,0,1-2.64-.51,5.85,5.85,0,0,1-2.09-1.49,7.12,7.12,0,0,1-1.37-2.44,10.35,10.35,0,0,1-.49-3.34,9.05,9.05,0,0,1,.44-2.85A6.73,6.73,0,0,1,413.37,54a5.83,5.83,0,0,1,2-1.53A6.36,6.36,0,0,1,418.1,51.87Zm.06,1.88a3.64,3.64,0,0,0-2.77,1.07,5.27,5.27,0,0,0-1.26,3h7.52a5.33,5.33,0,0,0-.23-1.64,3.65,3.65,0,0,0-.68-1.28,3,3,0,0,0-1.1-.83A3.49,3.49,0,0,0,418.16,53.75Z"/><path class="cls-2" d="M426.93,66.67V52.1h1.4a.71.71,0,0,1,.54.16,1,1,0,0,1,.21.54l.16,2.28A6.65,6.65,0,0,1,431,52.69a4,4,0,0,1,3.48-.72,3.54,3.54,0,0,1,.86.39L435,54.27a.43.43,0,0,1-.43.36,2.1,2.1,0,0,1-.58-.14,3.62,3.62,0,0,0-1.11-.13,3.07,3.07,0,0,0-2.12.77,5.94,5.94,0,0,0-1.43,2.26v9.28Z"/><path class="cls-2" d="M437.93,66.67V52.1h1.45a.64.64,0,0,1,.66.53l.19,1.58a8,8,0,0,1,2-1.7,5,5,0,0,1,2.57-.64,4.82,4.82,0,0,1,2,.39,3.93,3.93,0,0,1,1.45,1.13,5.09,5.09,0,0,1,.88,1.74,8,8,0,0,1,.3,2.26v9.28H447V57.39a4.07,4.07,0,0,0-.72-2.57,2.63,2.63,0,0,0-2.19-.91,3.85,3.85,0,0,0-2,.55,6.79,6.79,0,0,0-1.73,1.48V66.67Z"/><path class="cls-2" d="M474.85,66.67H472.8a.88.88,0,0,1-.57-.18,1.15,1.15,0,0,1-.33-.48l-1.83-5H461.3l-1.83,5a1,1,0,0,1-.33.46.8.8,0,0,1-.57.2h-2.05l7.82-20.62H467ZM462,59h7.3l-3.07-8.39a16.54,16.54,0,0,1-.59-1.94q-.15.59-.3,1.08t-.27.87Z"/><path class="cls-2" d="M476.94,66.67V52.1h1.39a.74.74,0,0,1,.55.16,1,1,0,0,1,.2.54l.16,2.28A6.76,6.76,0,0,1,481,52.69a3.73,3.73,0,0,1,2.45-.85,3.63,3.63,0,0,1,1,.13,3.54,3.54,0,0,1,.86.39L485,54.27a.41.41,0,0,1-.42.36,2.07,2.07,0,0,1-.59-.14,3.54,3.54,0,0,0-1.1-.13,3.08,3.08,0,0,0-2.13.77,5.82,5.82,0,0,0-1.42,2.26v9.28Z"/><path class="cls-2" d="M492.13,66.9a3.26,3.26,0,0,1-2.52-1,4,4,0,0,1-.88-2.78V54.24h-1.67a.48.48,0,0,1-.36-.14.54.54,0,0,1-.15-.42v-1l2.26-.3.56-4.51a.57.57,0,0,1,.18-.35.56.56,0,0,1,.38-.14h1.23v5h4v1.85h-4V63a2,2,0,0,0,.42,1.37,1.46,1.46,0,0,0,1.09.44,1.63,1.63,0,0,0,.66-.11,3.22,3.22,0,0,0,.49-.23l.35-.24a.45.45,0,0,1,.25-.11c.13,0,.24.08.34.25l.71,1.22a4.46,4.46,0,0,1-1.51,1A4.88,4.88,0,0,1,492.13,66.9Z"/><path class="cls-1" d="M30.12,108.56c-.74-1.33-2.66-.44-2.66-.44.06-.18-1.74,5.72-3.86,12.45a32.79,32.79,0,0,1,5.79.88C29.77,114.57,30.12,108.56,30.12,108.56Z"/><path class="cls-2" d="M29.39,121.45a32.79,32.79,0,0,0-5.79-.88c-1.94,6.13-4.14,12.93-5.46,16.47,2.2.88,8.07,1.21,10.41,1.31C28.69,134.52,29.05,127.64,29.39,121.45Z"/><text/></g></g></svg>