<svg xmlns="http://www.w3.org/2000/svg" viewBox="0 0 238.76 144.82"><defs><style>.cls-1{fill:#f39200;}.cls-2{fill:#fff;}.cls-3{fill:#1d1d1b;}</style></defs><title>GoMA-black</title><g id="Layer_2" data-name="Layer 2"><g id="Layer_1-2" data-name="Layer 1"><path class="cls-1" d="M88.09,1.54C86.54-1.25,82.51.61,82.51.61c.11-.37-3.67,12-8.13,26.18a69,69,0,0,1,12.18,1.84C87.35,14.18,88.09,1.54,88.09,1.54Z"/><path class="cls-1" d="M89.64,82.22c-4-3.41-4.65-7.14-5-12.1-.05-.76,0-2.9.11-6-4.91-.21-17.26-.91-21.88-2.75-.59,1.59-1.1,2.87-1.5,3.75-1.92,4.2-3.73,7.14-9,8.38a143.18,143.18,0,0,1-14.28,2.79l-.93,5S62.65,93.08,67.61,94s28.86-.31,30.1-2.17A8.91,8.91,0,0,0,99,87.49S91.35,83.66,89.64,82.22Z"/><path class="cls-2" d="M86.56,28.63a69,69,0,0,0-12.18-1.84C70.32,39.66,65.69,54,62.91,61.4c4.62,1.84,17,2.54,21.88,2.75C85.09,56.1,85.85,41.64,86.56,28.63Z"/><path class="cls-3" d="M29.36,134.91a21.67,21.67,0,0,0,4.73-.46A22.63,22.63,0,0,0,38,133.23V124.8h-5.5a2.67,2.67,0,0,1-1.9-.64,2.17,2.17,0,0,1-.69-1.64v-7.1H49.64v23.45a28.24,28.24,0,0,1-4.44,2.69,28.56,28.56,0,0,1-4.92,1.85,37,37,0,0,1-5.56,1.07,55,55,0,0,1-6.35.34,29.26,29.26,0,0,1-11.29-2.15A27,27,0,0,1,2.15,127.72,29.38,29.38,0,0,1,0,116.42,30.81,30.81,0,0,1,2.06,105,25.69,25.69,0,0,1,8,96a26.51,26.51,0,0,1,9.26-5.87,33.49,33.49,0,0,1,12.15-2.1,35.56,35.56,0,0,1,6.52.57,31.94,31.94,0,0,1,5.62,1.56,25.3,25.3,0,0,1,4.71,2.37,24.6,24.6,0,0,1,3.81,3l-3.73,5.68A4,4,0,0,1,45,102.46a3,3,0,0,1-1.62.46,4.52,4.52,0,0,1-2.36-.76q-1.53-.91-2.88-1.59a18.45,18.45,0,0,0-2.77-1.08,17.36,17.36,0,0,0-3-.61,28.57,28.57,0,0,0-3.51-.19A16,16,0,0,0,22.38,100a14.13,14.13,0,0,0-4.94,3.61,16.33,16.33,0,0,0-3.14,5.58,22.5,22.5,0,0,0-1.11,7.27,23.48,23.48,0,0,0,1.22,7.85,17,17,0,0,0,3.38,5.8,14.39,14.39,0,0,0,5.11,3.6A16.64,16.64,0,0,0,29.36,134.91Z"/><path class="cls-3" d="M79.69,104.06a22.78,22.78,0,0,1,8.19,1.41,17.93,17.93,0,0,1,6.35,4,18.29,18.29,0,0,1,4.12,6.39,23,23,0,0,1,1.47,8.45,23.43,23.43,0,0,1-1.47,8.52,18.32,18.32,0,0,1-4.12,6.44,17.88,17.88,0,0,1-6.35,4.08,22.57,22.57,0,0,1-8.19,1.43,22.91,22.91,0,0,1-8.26-1.43,18.27,18.27,0,0,1-6.4-4.08,18,18,0,0,1-4.16-6.44,23.43,23.43,0,0,1-1.47-8.52,23,23,0,0,1,1.47-8.45A18,18,0,0,1,65,109.51a18.32,18.32,0,0,1,6.4-4A23.13,23.13,0,0,1,79.69,104.06Zm0,32a6.7,6.7,0,0,0,6-2.88c1.29-1.92,1.93-4.83,1.93-8.75s-.64-6.82-1.93-8.73a6.71,6.71,0,0,0-6-2.86q-4.2,0-6.14,2.86t-2,8.73c0,3.92.65,6.83,2,8.75S76.89,136.05,79.69,136.05Z"/><path class="cls-3" d="M140.75,121.83c.47,1,.92,2.11,1.35,3.2.43-1.12.89-2.2,1.37-3.26s1-2.08,1.49-3.07l14.26-28.1a4.83,4.83,0,0,1,.78-1.12,2.6,2.6,0,0,1,.9-.59A3,3,0,0,1,162,88.7h11.31v55.51H162V112.26c0-1.55.07-3.23.22-5l-14.71,28.55a4.94,4.94,0,0,1-1.85,2,5.2,5.2,0,0,1-2.65.68h-1.76a5.2,5.2,0,0,1-2.65-.68,4.85,4.85,0,0,1-1.84-2l-14.8-28.59c.1.89.18,1.77.23,2.65s.08,1.68.08,2.42v32H110.87V88.7h11.31a3,3,0,0,1,1.12.19,2.6,2.6,0,0,1,.9.59A4.54,4.54,0,0,1,125,90.6l14.3,28.21C139.79,119.78,140.28,120.78,140.75,121.83Z"/><path class="cls-3" d="M238.76,144.21h-10a4.65,4.65,0,0,1-2.77-.78,4,4,0,0,1-1.5-2l-3.28-9.69H200.09l-3.28,9.69a4.41,4.41,0,0,1-4.19,2.78H182.55l21.51-55.55h13.19ZM203.07,123h15.17l-5.11-15.21c-.33-1-.71-2.1-1.16-3.41s-.88-2.73-1.31-4.25c-.41,1.55-.83,3-1.26,4.31s-.84,2.46-1.22,3.43Z"/></g></g></svg>